<svg width="120" height="134" viewBox="0 0 120 134" fill="none" xmlns="http://www.w3.org/2000/svg">
<path d="M120 115.389C120 125.67 112.54 134 103.333 134H16.6667C7.46333 134 0 125.67 0 115.389V18.6111C0 8.33033 7.46333 0 16.6667 0H103.333C112.54 0 120 8.33033 120 18.6111V115.389Z" fill="#66FCF1"/>
<path d="M82.3963 70.7333C80.6516 68.6333 78.1284 67.1867 74.8805 66.4167C74.8805 66.4167 77.6184 65.5533 80.0879 62.3333C81.5642 60.28 82.3158 57.8067 82.3158 54.9133C82.3158 49.8967 80.2221 46.0467 76.0347 43.41C71.8474 40.7733 67.1232 39 59.0974 39H34V95H61.9963C69.5926 94.9533 75.31 93.53 79.2021 90.8C83.0674 88.0233 85 83.9167 85 78.4333C85 75.4 84.141 72.8333 82.3963 70.7333ZM50.1053 48.3333C50.1053 48.3333 61.2984 48.3333 61.5132 48.3333C65.5932 48.3333 68.8947 51.2033 68.8947 54.75C68.8947 58.2967 65.5932 61.1667 61.5132 61.1667C61.2984 61.1667 50.1053 61.1667 50.1053 61.1667V48.3333ZM63.5263 85.6667H50.1053V71.6667H63.5263C67.9821 71.6667 71.5789 74.7933 71.5789 78.6667C71.5789 82.54 67.9821 85.6667 63.5263 85.6667Z" fill="#1F2833"/>
</svg>
