<svg width="120" height="134" viewBox="0 0 120 134" fill="none" xmlns="http://www.w3.org/2000/svg">
<path d="M118.571 1.86235C117.504 0.676711 115.982 0 114.387 0H5.61658C4.02147 0 2.49938 0.676711 1.43223 1.86235C0.365086 3.048 -0.140406 4.63072 0.0337079 6.20785L12.4014 117.071C12.6485 119.325 14.2493 121.21 16.4397 121.83L58.4517 133.782C58.9572 133.927 59.4795 134 59.9962 134C60.5129 134 61.0353 133.927 61.5408 133.782L103.553 121.83C105.743 121.21 107.338 119.325 107.591 117.071L119.964 6.20785C120.144 4.63072 119.639 3.048 118.571 1.86235ZM90.9829 56.3404L88.4779 97.0829L60.1816 106.294L31.8853 97.0829L30.8125 77.5981H45.1348L45.4942 86.4568L60.1816 91.4175L74.8689 86.4568L75.9417 70.5178H44.4215L43.7082 56.346H76.6606L77.7334 42.1742H28.3019L27.2291 27.9968H92.7745L90.9829 56.3404Z" fill="#66FCF1"/>
</svg>
