<svg width="219" height="109" viewBox="0 0 219 109" fill="none" xmlns="http://www.w3.org/2000/svg">
<path d="M72.9999 75.8513V33.9862H75.2812V40.5716C75.5506 40.2796 75.7994 39.9694 76.0258 39.6433C77.9311 35.7084 81.9497 33.225 86.337 33.274C91.5383 33.1196 95.765 35.0362 98.2488 39.6433C99.8294 42.5054 100.699 45.7024 100.786 48.9673C100.872 52.2322 100.172 55.4703 98.7452 58.4113C96.4311 63.5742 90.7152 66.1412 84.596 65.1983C82.6916 65.0372 80.8581 64.4038 79.2629 63.3559C77.6677 62.3081 76.3615 60.8792 75.4637 59.1997V75.8494L72.9999 75.8513ZM75.2812 48.7956L75.7922 53.7115C76.6937 59.3069 80.0171 62.6132 85.2347 63.2345C87.685 63.6355 90.1991 63.1783 92.3486 61.9406C94.4981 60.703 96.1499 58.7616 97.0224 56.4474C99.0518 51.6333 98.9022 46.1833 96.6209 41.4817C95.6897 39.4073 94.1054 37.6909 92.1076 36.5919C90.1097 35.493 87.8068 35.0713 85.5468 35.3905C83.4255 35.5441 81.4049 36.3515 79.7657 37.7006C78.1265 39.0498 76.9501 40.8736 76.3999 42.9187C75.9141 44.8541 75.5406 46.8157 75.2812 48.7938V48.7956ZM147.365 54.4854C147.019 57.4331 145.609 60.1554 143.398 62.146C141.187 64.1366 138.325 65.26 135.344 65.3073C125.777 65.7869 121.288 59.4631 120.574 52.1656C120.078 48.2026 120.724 44.1809 122.437 40.5698C123.63 38.0926 125.584 36.0575 128.016 34.7595C130.448 33.4616 133.232 32.968 135.964 33.3503C138.562 33.5701 141.025 34.5976 143.004 36.2874C144.982 37.9772 146.377 40.2437 146.991 42.7661C147.477 45.0639 147.835 47.3868 148.062 49.724H122.937C122.472 56.3403 126.044 61.6595 131.106 62.942C137.411 64.4862 142.801 61.7666 144.757 55.7989C145.191 54.2674 145.984 54.0513 147.381 54.4854H147.365ZM122.919 47.6057H145.392C145.252 40.5571 140.842 35.4341 134.862 35.3759C128.109 35.2669 123.213 40.1846 122.919 47.6057V47.6057ZM152.01 54.6399H154.212C154.293 56.2553 154.82 57.8172 155.735 59.1537C156.651 60.4903 157.918 61.5497 159.399 62.2154C161.259 63.0483 163.283 63.4532 165.321 63.3997C167.359 63.3462 169.359 62.8358 171.172 61.9065C172.16 61.4636 172.988 60.7294 173.544 59.8032C174.099 58.8769 174.356 57.8032 174.278 56.7272C174.335 55.6895 174.051 54.6616 173.468 53.7994C172.885 52.9372 172.035 52.2877 171.048 51.9494C168.624 51.0519 166.048 50.5578 163.578 49.7694C161.009 49.0412 158.496 48.1268 156.061 47.0335C152.083 45.1005 151.836 37.5723 156.34 35.1888C158.647 33.8934 161.242 33.1934 163.89 33.1528C166.538 33.1122 169.154 33.7322 171.499 34.9563C174.408 36.5549 176.016 39.7832 175.538 43.0586H173.649C173.649 42.9678 173.477 42.8878 173.477 42.7952C173.244 36.8002 168.181 34.9254 162.746 35.4522C161.104 35.6339 159.547 36.128 158.087 36.8583C157.209 37.2573 156.478 37.918 155.994 38.7489C155.51 39.5798 155.298 40.5399 155.386 41.4963C155.388 42.4534 155.687 43.3865 156.244 44.1672C156.8 44.9479 157.585 45.538 158.492 45.8563C160.865 46.7228 163.383 47.2787 165.838 47.9582L171.769 49.5023C173.117 49.9428 174.299 50.7802 175.159 51.9039C176.018 53.0276 176.515 54.3845 176.583 55.7953C177.058 58.9653 175.434 62.0809 172.561 63.5252C167.374 66.4464 158.831 65.6743 155.026 61.981C153.079 60.0317 151.993 57.3848 152.015 54.638L152.01 54.6399ZM204.533 43.0604H202.467C202.467 42.7825 202.358 42.5154 202.327 42.3029C202.294 40.7614 201.729 39.278 200.728 38.1015C199.727 36.925 198.35 36.1269 196.828 35.841C193.957 35.0213 190.894 35.1681 188.115 36.2588C187.017 36.5718 186.049 37.2304 185.358 38.1362C184.666 39.0419 184.288 40.1462 184.279 41.2837C184.24 42.4007 184.589 43.497 185.268 44.3871C185.947 45.2772 186.914 45.9065 188.006 46.1687L197.448 48.5813C198.47 48.8251 199.475 49.1296 200.46 49.4932C203.471 50.5832 205.515 53.3664 205.606 56.5474C205.651 58.1044 205.222 59.6386 204.376 60.9485C203.529 62.2583 202.304 63.2826 200.861 63.8867C198.67 64.8777 196.294 65.402 193.887 65.4261C191.48 65.4502 189.095 64.9735 186.884 64.0266C185.065 63.246 183.531 61.9297 182.486 60.2547C181.442 58.5797 180.939 56.6265 181.044 54.658H183.062C183.821 58.3004 186.334 61.3343 189.782 62.7694C193.229 64.2046 197.166 63.8522 200.301 61.832C201.242 61.3451 202.023 60.6 202.551 59.685C203.08 58.77 203.334 57.7233 203.283 56.6691C203.33 55.6306 203.035 54.6053 202.444 53.7486C201.852 52.892 200.996 52.2507 200.005 51.9221C197.582 51.0247 195.005 50.5469 192.536 49.7421C189.952 49.0252 187.424 48.1211 184.973 47.0371C181.089 45.1351 180.779 37.6686 185.206 35.2869C187.541 33.9371 190.187 33.2119 192.887 33.182C195.587 33.1521 198.249 33.8184 200.613 35.1161C201.965 35.9196 203.054 37.0971 203.746 38.5053C204.438 39.9136 204.704 41.4918 204.511 43.0477L204.533 43.0604ZM69.2459 64.5516C68.4327 64.8577 67.5351 64.8569 66.7224 64.5493C65.9098 64.2417 65.2384 63.6487 64.8349 62.8821L56.8049 51.8277L55.6405 50.2835L46.3221 62.8984C45.9423 63.6321 45.3072 64.203 44.5354 64.5045C43.7636 64.8061 42.908 64.8176 42.1282 64.5371L54.1331 48.505L42.9641 34.0189C44.6212 33.423 46.4681 34.0697 47.3897 35.563L55.7117 46.7537L64.083 35.6066C64.4656 34.8856 65.1011 34.3297 65.8687 34.0446C66.6362 33.7596 67.4822 33.7653 68.2458 34.0607L63.9114 39.785L58.0404 47.3914C57.8775 47.5362 57.7471 47.7137 57.6578 47.9122C57.5686 48.1106 57.5224 48.3257 57.5224 48.5431C57.5224 48.7606 57.5686 48.9756 57.6578 49.1741C57.7471 49.3726 57.8775 49.55 58.0404 49.6949L69.2222 64.5516H69.2459ZM120.218 33.8645V36.0445C118.647 35.9419 117.072 36.1683 115.595 36.7092C114.117 37.25 112.77 38.0932 111.64 39.1843C110.511 40.2755 109.623 41.5903 109.035 43.044C108.448 44.4976 108.172 46.0579 108.228 47.6239C108.228 52.7154 108.228 57.8069 108.228 62.8984V64.6297H106.007V34.0007H108.197V40.2773C110.883 35.6993 115.03 34.0007 120.233 33.8772L120.218 33.8645ZM13.3827 48.3051L14.3609 43.4964C17.0473 33.988 27.9973 30.0313 35.5309 35.9209C39.9419 39.369 41.0424 44.254 40.827 49.7585H15.976C15.5745 59.5903 22.7011 65.5271 31.817 62.4969C34.821 61.4069 37.0821 58.9217 37.8267 55.8334C38.3085 54.2892 39.1042 54.024 40.5606 54.4709C40.3177 56.3532 39.6492 58.1562 38.6055 59.7443C37.5617 61.3324 36.1698 62.6642 34.5344 63.6396C31.8326 65.1105 28.7328 65.6932 25.6782 65.3046C22.6236 64.916 19.7706 63.5759 17.5273 61.476C15.3081 58.9926 13.9685 55.8534 13.7075 52.538C13.7075 51.993 13.525 51.4843 13.3973 50.9938C13.3851 50.077 13.379 49.1808 13.379 48.3051H13.3827ZM16.007 47.6402H38.4801C38.3395 40.5135 33.8208 35.4577 27.7947 35.4104C21.086 35.3196 16.2863 40.2646 15.9906 47.6094L16.007 47.6402Z" fill="#66FCF1"/>
</svg>
