<svg width="120" height="134" viewBox="0 0 120 134" fill="none" xmlns="http://www.w3.org/2000/svg">
<path d="M42.685 134C33.02 134 25.185 125.251 25.185 114.458C25.185 103.666 33.02 94.9166 42.685 94.9166H60.185V114.458C60.185 125.251 52.35 134 42.685 134ZM82.5 44.6666H65V5.58325H82.5C92.165 5.58325 100 14.3323 100 25.1249C100 35.9175 92.165 44.6666 82.5 44.6666ZM42.5 44.6666H60V5.58325H42.5C32.835 5.58325 25 14.3323 25 25.1249C25 35.9175 32.835 44.6666 42.5 44.6666ZM42.5 89.3332H60V50.2499H42.5C32.835 50.2499 25 58.999 25 69.7916C25 80.5842 32.835 89.3332 42.5 89.3332ZM80 50.2499C76.0218 50.2499 72.2064 52.0146 69.3934 55.1559C66.5803 58.2971 65 62.5575 65 66.9999C65 71.4423 66.5803 75.7027 69.3934 78.844C72.2064 81.9852 76.0218 83.7499 80 83.7499C83.9782 83.7499 87.7936 81.9852 90.6066 78.844C93.4196 75.7027 95 71.4423 95 66.9999C95 62.5575 93.4196 58.2971 90.6066 55.1559C87.7936 52.0146 83.9782 50.2499 80 50.2499Z" fill="#66FCF1"/>
</svg>
