<svg width="38" height="37" viewBox="0 0 38 37" fill="none" xmlns="http://www.w3.org/2000/svg">
<path d="M17.2583 3.23744C9.97501 4.00828 4.11668 9.71244 3.32501 16.6499C2.53335 23.8958 6.80835 30.3708 13.3 32.8374C13.775 32.9916 14.25 32.6833 14.25 32.0666V29.5999C14.25 29.5999 13.6167 29.7541 12.825 29.7541C10.6083 29.7541 9.65835 27.9041 9.50001 26.8249C9.34168 26.2083 9.02501 25.7458 8.55001 25.2833C8.07501 25.1291 7.91668 25.1291 7.91668 24.9749C7.91668 24.6666 8.39168 24.6666 8.55001 24.6666C9.50001 24.6666 10.2917 25.7458 10.6083 26.2083C11.4 27.4416 12.35 27.7499 12.825 27.7499C13.4583 27.7499 13.9333 27.5958 14.25 27.4416C14.4083 26.3624 14.8833 25.2833 15.8333 24.6666C12.1917 23.8958 9.50001 21.8916 9.50001 18.4999C9.50001 16.8041 10.2917 15.1083 11.4 13.8749C11.2417 13.5666 11.0833 12.7958 11.0833 11.7166C11.0833 11.0999 11.0833 10.1749 11.5583 9.24994C11.5583 9.24994 13.775 9.24994 15.9917 11.2541C16.7833 10.9458 17.8917 10.7916 19 10.7916C20.1083 10.7916 21.2167 10.9458 22.1667 11.2541C24.225 9.24994 26.6 9.24994 26.6 9.24994C26.9167 10.1749 26.9167 11.0999 26.9167 11.7166C26.9167 12.9499 26.7583 13.5666 26.6 13.8749C27.7083 15.1083 28.5 16.6499 28.5 18.4999C28.5 21.8916 25.8083 23.8958 22.1667 24.6666C23.1167 25.4374 23.75 26.8249 23.75 28.2124V32.2208C23.75 32.6833 24.225 33.1458 24.8583 32.9916C30.7167 30.6791 34.8333 25.1291 34.8333 18.6541C34.8333 9.40411 26.7583 2.15828 17.2583 3.23744Z" fill="#66FCF1"/>
</svg>
