<svg width="121" height="134" viewBox="0 0 121 134" fill="none" xmlns="http://www.w3.org/2000/svg">
<path d="M113.325 0H7.68629C3.44364 0 0 3.81362 0 8.51209V125.488C0 130.186 3.44364 134 7.68629 134H113.314C117.556 134 121 130.186 121 125.5V8.51209C121 3.81362 117.556 0 113.325 0ZM66.2619 102.681C66.2619 115.43 59.5097 121.238 49.6514 121.238C40.7385 121.238 34.3126 114.62 31.6905 108.476L40.7497 102.407C42.494 105.834 45.1499 108.476 48.9762 108.476C52.6336 108.476 54.7381 106.893 54.7381 100.737V60.619H66.2619V102.681ZM91.2564 121.238C81.0493 121.238 75.2536 115.543 72.0238 108.476L80.6667 102.095C83.0187 106.358 85.5845 110.433 91.0088 110.433C95.5666 110.433 97.9524 107.915 97.9524 104.426C97.9524 100.263 95.4766 98.7801 90.4687 96.3499L87.7227 95.0413C79.7889 91.3025 74.5109 86.6164 74.5109 76.6961C74.5109 67.5733 80.8017 60.619 90.615 60.619C97.6035 60.619 102.623 63.311 106.246 70.365L97.6935 76.4593C95.8029 72.708 93.7773 71.2374 90.615 71.2374C87.3964 71.2374 85.3595 73.5056 85.3595 76.4593C85.3595 80.1109 87.3964 81.5815 92.1117 83.8497L94.8576 85.1583C104.209 89.5826 109.476 94.1066 109.476 104.276C109.476 115.231 101.7 121.238 91.2564 121.238Z" fill="#66FCF1"/>
</svg>
