<svg width="19" height="19" viewBox="0 0 19 19" fill="none" xmlns="http://www.w3.org/2000/svg">
<path d="M16.9805 0.000416645C16.9432 0.0015943 16.906 0.00485461 16.8691 0.0101823H12C11.8675 0.00830822 11.7359 0.0327895 11.613 0.0822033C11.49 0.131617 11.3781 0.204978 11.2837 0.298022C11.1893 0.391067 11.1144 0.501939 11.0632 0.624196C11.0121 0.746454 10.9858 0.877657 10.9858 1.01018C10.9858 1.14271 11.0121 1.27391 11.0632 1.39617C11.1144 1.51843 11.1893 1.6293 11.2837 1.72234C11.3781 1.81539 11.49 1.88875 11.613 1.93816C11.7359 1.98758 11.8675 2.01206 12 2.01018H14.5859L5.29297 11.3032C5.197 11.3953 5.12037 11.5057 5.06759 11.6278C5.0148 11.7499 4.98692 11.8814 4.98556 12.0144C4.98421 12.1474 5.00942 12.2794 5.0597 12.4026C5.10999 12.5258 5.18435 12.6377 5.27843 12.7317C5.37251 12.8258 5.48442 12.9002 5.6076 12.9505C5.73077 13.0008 5.86275 13.026 5.99579 13.0246C6.12883 13.0233 6.26026 12.9954 6.38239 12.9426C6.50452 12.8898 6.61489 12.8132 6.70703 12.7172L16 3.42424V6.01018C15.9981 6.14269 16.0226 6.27426 16.072 6.39723C16.1214 6.52019 16.1948 6.63211 16.2878 6.72648C16.3809 6.82085 16.4918 6.89579 16.614 6.94694C16.7363 6.99809 16.8675 7.02442 17 7.02442C17.1325 7.02442 17.2637 6.99809 17.386 6.94694C17.5082 6.89579 17.6191 6.82085 17.7122 6.72648C17.8052 6.63211 17.8786 6.52019 17.928 6.39723C17.9774 6.27426 18.0019 6.14269 18 6.01018V1.13714C18.0199 0.993161 18.0082 0.846575 17.9657 0.707585C17.9232 0.568596 17.8509 0.440542 17.7538 0.332342C17.6568 0.224141 17.5373 0.138393 17.4038 0.0810689C17.2702 0.0237447 17.1258 -0.00377817 16.9805 0.000416645ZM2 0.0101823C0.906937 0.0101823 0 0.91712 0 2.01018V16.0102C0 17.1032 0.906937 18.0102 2 18.0102H16C17.0931 18.0102 18 17.1032 18 16.0102V10.0102C18.0019 9.87767 17.9774 9.74611 17.928 9.62314C17.8786 9.50017 17.8052 9.38825 17.7122 9.29388C17.6191 9.19951 17.5082 9.12457 17.386 9.07343C17.2637 9.02228 17.1325 8.99594 17 8.99594C16.8675 8.99594 16.7363 9.02228 16.614 9.07343C16.4918 9.12457 16.3809 9.19951 16.2878 9.29388C16.1948 9.38825 16.1214 9.50017 16.072 9.62314C16.0226 9.74611 15.9981 9.87767 16 10.0102V16.0102H2V2.01018H8C8.13251 2.01206 8.26407 1.98758 8.38704 1.93816C8.51001 1.88875 8.62193 1.81539 8.7163 1.72234C8.81067 1.6293 8.88561 1.51843 8.93676 1.39617C8.9879 1.27391 9.01424 1.14271 9.01424 1.01018C9.01424 0.877657 8.9879 0.746454 8.93676 0.624196C8.88561 0.501939 8.81067 0.391067 8.7163 0.298022C8.62193 0.204978 8.51001 0.131617 8.38704 0.0822033C8.26407 0.0327895 8.13251 0.00830822 8 0.0101823H2Z" fill="#66FCF1"/>
</svg>
