<svg width="121" height="134" viewBox="0 0 121 134" fill="none" xmlns="http://www.w3.org/2000/svg">
<g clip-path="url(#clip0_202_2)">
<path d="M60.1219 0.364258L63.3511 7.08101C64.0771 8.32051 64.8636 9.41763 65.79 10.4394C68.4936 13.4334 71.061 16.5699 73.3676 19.9283C78.8391 27.8845 82.5296 36.7201 85.1651 46.276C86.7457 52.1134 87.604 58.1015 87.6683 64.1566C87.933 82.2592 82.3292 97.8032 71.0308 110.722C69.1855 112.765 67.2117 114.658 65.0942 116.341C63.975 116.341 63.4456 115.391 62.9843 114.516C62.1259 112.912 61.6003 111.082 61.3357 109.26C60.9386 107.07 60.6777 104.88 60.8063 102.619V101.597C60.7155 101.379 59.7286 0.87932 60.1219 0.364258Z" fill="#47DBD0"/>
<path d="M60.1219 0.142354C59.9895 -0.150771 59.8572 0.0711661 59.7248 0.213541C59.7891 1.67917 59.3278 2.98567 58.6056 4.23354C57.8115 5.47304 56.7603 6.4236 55.7054 7.44535C49.8444 13.065 45.2313 19.8529 41.537 27.4449C36.6214 37.6624 34.088 48.6127 33.3695 60.1409C33.0406 64.299 34.5568 78.972 35.7404 83.2056C38.9696 94.4449 44.77 103.863 52.2833 112.037C54.1286 114.005 56.1024 115.83 58.1443 117.585C58.7379 117.585 58.8022 116.999 58.9383 116.563C59.1986 115.631 59.397 114.68 59.532 113.716L60.8554 102.77L60.1219 0.142354Z" fill="#94FFF7"/>
<path d="M63.3511 120.788C63.4834 119.113 64.2094 117.723 64.9997 116.337C64.2056 115.973 63.6157 115.248 63.1544 114.44C62.7574 113.712 62.4284 112.836 62.1713 112.032C61.2487 108.967 61.0521 105.751 60.7874 102.619V100.722C60.4584 101.015 60.3903 103.494 60.3903 103.863C60.1979 107.173 59.8012 110.465 59.203 113.716C59.0064 115.031 58.8741 116.341 58.1443 117.51C58.1443 117.656 58.1443 117.803 58.2086 118.02C59.3959 121.89 59.7211 125.83 59.9215 129.846V131.312C59.9215 133.062 59.8572 132.693 61.1693 133.28C61.6987 133.497 62.2885 133.573 62.8179 134.008C63.2149 134.008 63.2792 133.644 63.2792 133.351L63.0826 130.943V124.226C63.0183 123.054 63.2149 121.89 63.3473 120.793L63.3511 120.788Z" fill="#C2BFBF"/>
</g>
<defs>
<clipPath id="clip0_202_2">
<rect width="121" height="134" fill="white"/>
</clipPath>
</defs>
</svg>
