<svg width="502" height="468" viewBox="0 0 502 468" fill="none" xmlns="http://www.w3.org/2000/svg">
<g id="programmer">
<g id="smoke">
<path id="path360" d="M245.188 186.328C246.469 183.738 247.202 180.751 247.202 177.569C247.202 168.5 241.265 161.009 233.568 159.832C234.402 158.071 234.874 156.089 234.874 153.994C234.874 148.674 231.856 144.092 227.506 141.988C227.68 141.107 227.794 140.176 227.828 139.203C228.073 131.999 223.755 126.55 221.957 124.523C217.233 114.188 209.529 100.211 197.299 86.4892C188.168 76.2471 179.081 69.0261 171.663 64.0251C170.554 65.2148 169.445 66.4002 168.334 67.5857C166.317 69.7399 164.296 71.8898 162.269 74.0355C168.753 84.0141 176.302 98.1843 181.448 116.516C183.555 124.028 184.939 131.096 185.842 137.495C183.099 139.305 181.252 142.677 181.252 146.543C181.252 149.877 182.628 152.845 184.767 154.759C184.733 155.024 184.701 155.29 184.668 155.551C180.55 157.743 177.729 162.196 177.729 167.338C177.729 169.035 178.039 170.656 178.6 172.147C174.067 174.308 170.479 178.516 168.727 183.751V198.302C169.15 199.566 169.679 200.772 170.305 201.903C169.729 202.667 169.204 203.483 168.727 204.337V224.167H226.635C227.303 222.314 227.746 220.345 227.927 218.293C229.387 220.668 231.28 222.673 233.473 224.167H251.931C257.187 220.591 260.704 214.061 260.704 206.595C260.704 196.254 253.954 187.705 245.188 186.328Z" fill="#DBDBDB"/>
<path id="path362" d="M245.579 185.884C246.86 183.294 247.593 180.307 247.593 177.125C247.593 168.053 241.658 160.565 233.961 159.386C234.793 157.624 235.265 155.644 235.265 153.55C235.265 148.23 232.247 143.648 227.897 141.544C228.071 140.663 228.185 139.732 228.219 138.757C228.466 131.555 224.146 126.106 222.348 124.079C217.624 113.744 209.92 99.7668 197.69 86.045C188.561 75.8029 179.473 68.5798 172.054 63.5809C170.236 64.6793 169.389 65.495 169.509 66.0283C169.585 66.3618 170.042 66.5849 170.879 66.6954C181.328 76.9565 187.684 87.0711 191.427 94.0521C191.427 94.0521 211.169 130.852 206.188 187.494C206.059 188.967 205.91 190.358 205.91 190.358C205.031 198.801 203.058 210.396 198.288 223.721H227.028C227.694 221.87 228.137 219.899 228.32 217.846C229.778 220.224 231.671 222.229 233.864 223.721H252.322C257.578 220.147 261.097 213.617 261.097 206.149C261.097 195.807 254.345 187.258 245.579 185.884Z" fill="#E9E9E9"/>
<path id="path364" d="M168.548 217.133C170.449 214.611 172.203 212.019 173.638 209.689C177.065 204.112 185.044 189.634 187.727 158.978C189.84 134.846 191.652 114.143 182.248 92.2527C178.284 83.0304 172.817 74.7281 167.114 68.0084C165.442 69.7908 163.768 71.5711 162.091 73.3471C168.574 83.3257 176.124 97.498 181.269 115.83C183.378 123.34 184.761 130.408 185.665 136.809C182.92 138.617 181.074 141.991 181.074 145.855C181.074 149.19 182.448 152.158 184.589 154.072C184.556 154.336 184.524 154.603 184.49 154.865C180.371 157.055 177.551 161.51 177.551 166.651C177.551 168.349 177.862 169.97 178.421 171.461C173.89 173.622 170.302 177.828 168.548 183.063V197.613C168.972 198.879 169.501 200.084 170.128 201.214C169.552 201.981 169.026 202.797 168.548 203.651V217.133Z" fill="#BCBCBC"/>
</g>
<g id="rest">
<path id="path68" d="M313.952 108.25C316.775 112.826 319.599 117.402 322.421 121.98L313.952 108.25Z" fill="#D1B79F"/>
<path id="path70" d="M317.05 105.779L327.228 118.15C329.466 120.869 329.339 125.133 326.947 127.674C324.556 130.217 320.805 130.075 318.567 127.355C318.185 126.89 317.858 126.35 317.615 125.811L310.854 110.719C309.896 108.579 310.644 105.964 312.525 104.876C314.077 103.978 315.917 104.405 317.05 105.779Z" fill="#D1B79F"/>
<path id="path72" d="M332.084 139.193L340.212 205.599L340.259 205.977C340.831 210.64 337.966 214.947 333.864 215.595C333.752 215.614 333.612 215.631 333.499 215.641L256.637 223.455C254.197 223.702 252.043 221.656 251.824 218.881C251.618 216.264 253.228 213.931 255.461 213.468L331.42 198.006L324.707 208.051L316.577 141.646C315.983 136.779 318.971 132.284 323.253 131.608C327.535 130.931 331.489 134.328 332.084 139.193Z" fill="#BD931C"/>
<path id="path74" d="M333.298 146.019C339.949 158.489 349.571 180.225 352.681 209.026C355.889 238.766 350.717 262.722 346.699 276.429" fill="#E6C719"/>
<path id="path76" d="M351.705 133.336C354.412 139.048 356.901 144.895 359.07 150.879C361.25 156.86 363.156 162.961 364.771 169.152L365.366 171.478L365.661 172.64C365.757 173.029 365.843 173.42 365.932 173.811L366.469 176.154L366.734 177.325L366.867 177.909L366.987 178.499L367.929 183.216L368.746 187.96C369.76 194.301 370.467 200.692 370.889 207.09C371.658 219.899 371.293 232.754 369.597 245.318C368.765 251.6 367.632 257.81 366.213 263.913C366.046 264.68 365.848 265.437 365.661 266.197L365.095 268.475L364.487 270.735C364.281 271.487 364.085 272.241 363.861 272.989C363.03 275.995 361.989 278.912 361.284 281.952L361.271 282.01C359.104 291.364 350.674 296.951 342.445 294.487C334.216 292.024 329.3 282.445 331.467 273.091C331.635 272.371 331.873 271.578 332.112 270.905C332.531 269.741 332.862 268.543 333.118 267.321C333.391 266.106 333.615 264.878 333.851 263.654C333.974 263.044 334.072 262.426 334.178 261.812L334.494 259.97L334.771 258.12C334.861 257.504 334.965 256.892 335.038 256.272C335.706 251.332 336.134 246.372 336.325 241.418L336.381 239.561C336.398 238.94 336.43 238.324 336.424 237.704L336.433 233.997L336.345 230.298L336.334 229.837L336.308 229.374L336.259 228.452L336.162 226.61C336.117 225.382 335.986 224.156 335.891 222.935L335.741 221.101C335.684 220.492 335.605 219.884 335.538 219.274L335.33 217.451C335.261 216.844 335.199 216.236 335.1 215.633L334.567 212.011C333.774 207.199 332.778 202.449 331.56 197.781L330.609 194.297L329.558 190.851L329.429 190.42L329.285 189.995L328.999 189.141L328.43 187.439C328.335 187.157 328.245 186.87 328.144 186.589L327.838 185.748L327.226 184.066C325.562 179.594 323.69 175.23 321.63 170.994C319.58 166.751 317.303 162.668 314.889 158.702C308.112 147.569 310.56 132.303 320.356 124.602C330.151 116.901 343.584 119.682 350.36 130.816C350.816 131.566 351.231 132.333 351.604 133.117L351.705 133.336Z" fill="#E6C719"/>
<path id="path78" d="M317.555 127.304C316.953 128.205 316.377 129.123 315.869 130.083C315.351 131.037 314.885 132.02 314.476 133.027C314.262 133.527 314.087 134.045 313.894 134.551C313.726 135.071 313.542 135.581 313.402 136.108C313.331 136.371 313.247 136.628 313.185 136.894L312.989 137.686C312.918 137.948 312.877 138.218 312.819 138.483C312.77 138.751 312.705 139.014 312.667 139.284C311.933 143.575 312.058 148.026 313.236 152.054L313.464 152.804C313.544 153.053 313.638 153.295 313.722 153.541C313.888 154.034 314.094 154.506 314.296 154.973C314.509 155.434 314.726 155.889 314.967 156.329C315.21 156.768 315.468 157.2 315.745 157.624C316.297 158.476 316.925 159.316 317.555 160.204C318.191 161.089 318.819 162.016 319.423 162.953C320.627 164.837 321.703 166.834 322.682 168.848C323.66 170.866 324.545 172.908 325.429 174.937L326.723 177.992C327.151 179.022 327.587 180.061 327.991 181.11C328.795 183.211 329.554 185.336 330.239 187.49C331.611 191.794 332.712 196.209 333.619 200.626C335.491 209.472 336.54 218.558 336.538 227.613C335.237 218.681 333.543 209.916 331.241 201.35C330.957 200.273 330.672 199.2 330.373 198.136C330.081 197.069 329.782 196.007 329.468 194.951C328.836 192.842 328.18 190.747 327.46 188.68C326.742 186.613 325.986 184.565 325.167 182.549C324.767 181.535 324.347 180.537 323.922 179.532L322.615 176.498C321.753 174.476 320.885 172.468 319.969 170.522C319.064 168.565 318.079 166.698 317 164.89C316.454 163.987 315.895 163.106 315.298 162.22C314.704 161.336 314.085 160.418 313.494 159.424C312.903 158.432 312.363 157.359 311.929 156.248C311.721 155.689 311.514 155.135 311.351 154.563C311.267 154.276 311.175 153.996 311.1 153.709L310.884 152.844C309.797 148.202 310.01 143.314 311.183 138.861C311.491 137.748 311.833 136.65 312.267 135.6C312.471 135.069 312.716 134.559 312.944 134.045C313.193 133.542 313.442 133.038 313.718 132.556C314.261 131.585 314.848 130.652 315.487 129.771C316.134 128.898 316.818 128.067 317.555 127.304Z" fill="#F6EAA9"/>
<path id="path80" d="M340.164 140.76L361.191 209.44L361.269 209.697C362.574 213.959 360.271 218.601 356.138 220.079C355.385 220.349 354.586 220.496 353.836 220.53L262.375 224.162C259.602 224.273 257.196 222.04 256.999 219.168C256.81 216.408 258.748 214.056 261.364 213.765L353.128 203.816L345.801 214.978L324.219 146.762C322.724 142.035 325.081 136.83 329.498 135.158C333.926 133.484 338.707 136.002 340.164 140.76Z" fill="#DDAB21"/>
<path id="path82" d="M310.695 117.1C298.926 120.729 286.478 113.561 283.032 101.171L278.18 83.7251C274.734 71.3352 281.542 58.2295 293.311 54.6009C296.112 54.0932 302.782 53.2943 310.263 56.5596C316.297 59.194 320.054 63.2453 321.867 65.5015C323.204 73.0391 324.541 80.5767 325.876 88.1143C326.293 89.6672 328.247 97.5936 323.967 105.826C319.644 114.137 312.144 116.648 310.695 117.1Z" fill="#D1B79F"/>
<path id="path84" d="M314.218 114.432C302.449 118.061 290.001 110.891 286.555 98.5007L281.701 81.0547C279.195 72.0448 282.116 62.6547 288.421 56.8082C279.749 62.1023 275.244 73.1708 278.18 83.7251L283.032 101.171C286.478 113.561 298.926 120.729 310.695 117.1C311.68 116.792 315.457 115.532 319.135 112.15C316.817 113.582 314.881 114.224 314.218 114.432Z" fill="#F1DBCB"/>
<path id="path86" d="M326.061 87.732C325.033 80.6511 319.958 79.5188 320.988 86.5996C321.308 88.0591 322.815 95.5053 319.517 103.238C316.186 111.048 310.408 113.406 309.292 113.833C307.579 114.477 305.85 114.757 304.15 114.713C307.353 116.085 310.898 116.27 314.367 114.965C315.483 114.54 321.259 112.18 324.59 104.373C327.888 96.6377 326.383 89.1936 326.061 87.732Z" fill="#C0A58D"/>
<path id="path88" d="M329.305 81.2332C329.305 85.3143 326.164 88.62 322.29 88.62C318.413 88.62 315.272 85.3143 315.272 81.2332C315.272 77.1543 318.413 73.8464 322.29 73.8464C326.164 73.8464 329.305 77.1543 329.305 81.2332Z" fill="#D1B79F"/>
<g id="g108">
<g id="g110">
<path id="path124" d="M312.652 86.0259C312.533 84.9934 312.273 83.5615 311.641 81.9746C311.188 80.8359 310.736 80.088 310.156 79.1469C308.688 76.7611 308.079 76.5359 305.799 73.3365C305.356 72.714 304.967 72.1447 304.724 71.8303C304.674 71.6773 304.627 71.5222 304.584 71.3671C303.314 66.7358 305.358 61.7412 305.837 60.5707C306.405 59.1813 307.022 58.3803 307.523 57.8152C307.989 57.2884 308.825 56.4747 310.02 55.984C310.293 55.8735 310.582 55.7779 310.893 55.7057C311.299 55.6122 311.697 55.5718 312.082 55.5718C313.991 55.5718 315.596 56.5788 316.516 57.1673C319.289 58.9433 321.37 62.5953 322.009 65.8138C322.299 67.2797 322.574 68.6882 322.808 69.9183C323.227 72.1298 323.516 73.7614 323.539 74.1035C323.501 74.0992 323.451 74.0907 323.389 74.0822C323.159 74.0525 322.763 74.0142 322.262 74.0142C320.813 74.0142 318.488 74.3456 316.798 76.2109C315.766 77.3517 315.354 78.637 315.167 79.2446C314.304 82.0532 314.988 84.526 315.298 85.465C314.416 85.652 313.533 85.8389 312.652 86.0259Z" fill="url(#paint0_linear)"/>
</g>
</g>
<path id="path126" d="M248.922 294.78L202.603 451.964C201.814 454.643 199.266 456.088 196.908 455.189C194.701 454.35 193.452 451.733 193.95 449.207L226.311 287.571C227.751 280.376 234.053 275.87 240.382 277.508C246.713 279.144 250.679 286.305 249.238 293.501C249.152 293.93 249.041 294.37 248.922 294.78Z" fill="#D1B79F"/>
<path id="path128" d="M395.787 307.152C394.545 298.304 393.713 287.159 394.476 274.361C395.16 262.881 396.957 252.938 398.93 244.908" fill="#B0B1CB"/>
<path id="path130" d="M389.657 324.739H294.116C288.871 324.739 284.58 319.863 284.58 313.904V306.037C284.58 300.078 288.871 295.202 294.116 295.202H389.657C394.902 295.202 399.194 300.078 399.194 306.037V313.904C399.194 319.863 394.902 324.739 389.657 324.739Z" fill="#DA2C14"/>
<path id="path132" d="M347.192 294.782L234.165 295.736L245.435 278.999L277.202 452.179C277.622 454.471 276.328 456.714 274.313 457.192C272.428 457.639 270.575 456.366 269.997 454.331L222.721 285.785C220.827 279.031 224.109 271.812 230.051 269.658C231.145 269.263 232.254 269.065 233.346 269.05L233.991 269.048L347.018 268.094C353.503 268.039 358.799 273.968 358.847 281.338C358.896 288.71 353.677 294.729 347.192 294.782Z" fill="#D1B79F"/>
<path id="path134" d="M153.989 467.267H210.571C211.51 461.788 211.093 457.475 210.605 454.737C209.726 449.816 208.417 448.835 207.792 448.495C205.971 447.507 203.926 448.686 202.344 449.251C199.313 450.335 194.481 450.413 186.76 445.506C181.766 445.232 177.764 445.996 175.064 446.593C169.045 447.923 162.091 450.791 157.76 456.914C155.159 460.592 154.262 464.373 153.989 467.267Z" fill="#BD931C"/>
<path id="path136" d="M214.651 443.768L249.352 304.393L222.362 295.719L187.663 435.094" fill="#121847"/>
<path id="path138" d="M342 265.239C305.446 265.052 268.892 264.867 232.338 264.682C227.933 264.659 223.815 266.958 221.139 270.933C218.462 274.905 217.585 280.021 218.755 284.846C231.463 337.273 244.172 389.698 256.882 442.124L283.922 433.662C271.215 381.237 258.505 328.811 245.796 276.384L232.276 280.616L232.213 296.549C268.767 296.734 305.321 296.919 341.875 297.104L342 265.239Z" fill="#192163"/>
<path id="path140" d="M168.6 231.014H161.526V135.148H168.6V231.014Z" fill="#160015"/>
<path id="path142" d="M256.906 231.014H168.6V224.067H256.906V231.014Z" fill="#160015"/>
<path id="path144" d="M400.639 252.076L414.885 181.095L414.867 181.331C414.882 181.246 414.899 181.161 414.915 181.076C414.798 180.057 414.478 179.71 414.052 179.515C409.498 177.448 392.847 192.859 388.879 212.266C384.816 232.151 394.768 252.794 399.876 252.412C400.134 252.39 400.381 252.316 400.639 252.076Z" fill="#DA2C14"/>
<path id="path146" d="M350.906 461.04H341.886V324.739H350.906V461.04Z" fill="#B0B1CB"/>
<path id="path148" d="M395.102 458.306H298.531V467.861H395.102V458.306Z" fill="#15154B"/>
<path id="path150" d="M333.309 265.08C333.458 263.767 333.608 262.454 333.758 261.141C344.627 262.044 355.495 262.947 366.363 263.847C364.698 281.032 359.345 293.656 354.221 295.61C351.519 296.641 348.15 297.087 348.15 297.087C344.981 297.507 342.322 297.327 340.504 297.087C338.105 286.418 335.708 275.749 333.309 265.08Z" fill="#192163"/>
<path id="path152" d="M112.147 230.904H102.289C98.209 230.904 94.9031 227.148 94.9031 222.512V198.671H119.533V222.512C119.533 227.148 116.227 230.904 112.147 230.904Z" fill="#BB2611"/>
<path id="path154" d="M102.19 212.822H100.694C100.694 213.723 100.529 214.571 100.232 215.348C99.7871 216.512 99.0354 217.517 98.0837 218.227C97.1319 218.937 95.9876 219.353 94.7423 219.353C93.0818 219.353 91.5953 218.611 90.5182 217.424C89.9797 216.829 89.5478 216.126 89.2505 215.348C88.9532 214.571 88.7905 213.723 88.7905 212.822C88.7905 211.924 88.9532 211.074 89.2505 210.296C89.6974 209.132 90.4472 208.129 91.3989 207.42C92.3507 206.71 93.4951 206.294 94.7423 206.294C96.4027 206.294 97.8873 207.033 98.9644 208.223C99.5029 208.816 99.9348 209.521 100.232 210.296C100.529 211.074 100.694 211.924 100.694 212.822H102.19H103.686C103.686 211.45 103.433 210.133 102.975 208.941C102.291 207.152 101.154 205.644 99.7273 204.579C98.3025 203.513 96.5803 202.892 94.7423 202.895C92.289 202.892 90.0508 203.995 88.4333 205.786C87.6218 206.68 86.9636 207.749 86.5074 208.941C86.0511 210.133 85.7987 211.45 85.7987 212.822C85.7987 214.195 86.0511 215.512 86.5074 216.704C87.1918 218.493 88.3305 220.003 89.7553 221.067C91.182 222.132 92.9023 222.752 94.7423 222.752C97.1955 222.752 99.4337 221.649 101.051 219.861C101.861 218.964 102.519 217.896 102.975 216.704C103.433 215.512 103.686 214.195 103.686 212.822H102.19Z" fill="#BB2611"/>
<path id="path156" d="M93.9494 221.957C93.9494 226.776 97.4106 230.683 101.679 230.683H107.642C109.213 215.391 109.51 205.236 109.007 198.671H93.9494V221.957Z" fill="#DA2C14"/>
<path id="path228" d="M311.908 86.1831C311.803 85.2037 311.555 83.7209 310.88 82.085C310.369 80.8486 309.81 79.9988 309.04 78.8282C308.361 77.7957 307.284 76.298 306.37 75.0934C306.194 74.8597 305.726 74.2458 305.227 73.3365C304.823 72.5993 304.382 71.6433 304.464 71.5775C304.466 71.5753 304.47 71.5753 304.474 71.5753C304.511 71.5753 304.599 71.6688 304.724 71.8303C304.874 72.2913 305.057 72.7438 305.281 73.1899C305.349 73.3259 306.732 75.291 309.496 79.2212C309.928 79.8373 310.472 80.7317 310.992 82.0085C311.659 83.6508 311.916 85.1336 312.026 86.1576C312.235 86.113 312.443 86.0705 312.652 86.0259C312.404 86.079 312.157 86.1321 311.908 86.1831Z" fill="#D1B79F"/>
<g id="g230">
<g id="g232">
<path id="path246" d="M312.026 86.1576C311.916 85.1336 311.66 83.6508 310.992 82.0086C310.472 80.7318 309.928 79.8374 309.496 79.2213C306.732 75.291 305.349 73.3259 305.281 73.19C305.057 72.7438 304.874 72.2913 304.724 71.8303C304.967 72.1448 305.356 72.7141 305.799 73.3365C308.079 76.536 308.688 76.7611 310.156 79.1469C310.736 80.088 311.188 80.8359 311.641 81.9746C312.273 83.5615 312.533 84.9934 312.653 86.0259C312.443 86.0705 312.236 86.113 312.026 86.1576Z" fill="url(#paint1_linear)"/>
</g>
</g>
<path id="path248" d="M312.974 115.365C314.593 118.951 316.211 122.535 317.83 126.119L312.974 115.365Z" fill="#F1DBCB"/>
<path id="path250" d="M312.974 115.365C313.597 116.136 314.113 116.967 314.597 117.814C315.08 118.666 315.519 119.541 315.925 120.438C316.331 121.332 316.699 122.25 317.026 123.191C317.352 124.134 317.643 125.097 317.83 126.119C317.208 125.35 316.691 124.519 316.205 123.669C315.725 122.819 315.283 121.944 314.879 121.048C314.476 120.151 314.107 119.233 313.78 118.292C313.455 117.349 313.163 116.389 312.974 115.365Z" fill="#F1DBCB"/>
<path id="path252" d="M328.514 135.755C327.232 136.367 326.059 137.289 325.209 138.498C324.788 139.103 324.449 139.775 324.21 140.486C323.971 141.198 323.834 141.948 323.786 142.707C323.688 144.228 323.943 145.742 324.257 147.24C324.412 147.984 324.616 148.712 324.866 149.42C324.928 149.598 324.994 149.766 325.065 149.953L325.252 150.495L325.627 151.578C326.637 154.468 327.615 157.372 328.61 160.267L330.094 164.612L331.568 168.965L334.513 177.669L337.432 186.383C339.386 192.192 341.31 198.01 343.238 203.829L343.531 204.717L342.679 204.826C336.061 205.65 329.442 206.453 322.817 207.209L312.881 208.333L302.94 209.436L292.998 210.509L283.052 211.548L273.103 212.535L268.129 213.028L263.152 213.489L268.107 212.784L273.064 212.108L282.978 210.761L292.897 209.463L302.821 208.199L312.746 206.967L322.673 205.754L342.531 203.343L341.972 204.339C340.063 198.518 338.15 192.697 336.267 186.863L333.432 178.119L330.624 169.362L329.219 164.984L327.828 160.599C326.905 157.673 325.964 154.756 325.055 151.825L324.711 150.726L324.541 150.178C324.479 150.006 324.414 149.813 324.356 149.63C324.118 148.884 323.93 148.124 323.793 147.351C323.522 145.829 323.303 144.249 323.453 142.673C323.593 141.103 324.139 139.564 325.063 138.366C325.986 137.168 327.207 136.303 328.514 135.755Z" fill="#EFDC6F"/>
<path id="path254" d="M320.294 171.565L320.814 175.056L321.313 178.548L322.31 185.536L323.275 192.527L324.217 199.523L324.275 199.959L323.888 200.041C318.531 201.18 313.17 202.31 307.806 203.409L303.784 204.237L299.758 205.049C297.074 205.584 294.391 206.139 291.706 206.661L283.647 208.24L275.584 209.78C272.895 210.286 270.206 210.791 267.512 211.271C264.819 211.758 262.129 212.253 259.432 212.712C262.101 212.076 264.776 211.477 267.448 210.87C270.122 210.258 272.798 209.669 275.474 209.081L283.507 207.341L291.545 205.639C294.223 205.068 296.906 204.528 299.588 203.972L303.612 203.143L307.635 202.332C313.002 201.242 318.374 200.184 323.746 199.136L323.417 199.655L322.598 192.638L321.802 185.618L321.037 178.593L320.655 175.081L320.294 171.565Z" fill="#ECD553"/>
<path id="path256" d="M322.643 76.0686C323.481 76.4128 324.234 77.0522 324.812 77.8723C325.384 78.6966 325.766 79.7184 325.869 80.7786C325.975 81.8408 325.826 82.9179 325.489 83.8803C325.143 84.8384 324.65 85.7222 323.982 86.3999C324.384 85.5013 324.696 84.5899 324.904 83.6636C325.108 82.7395 325.181 81.8004 325.091 80.8848C325.003 79.9691 324.73 79.079 324.307 78.2696C323.885 77.458 323.313 76.7315 322.643 76.0686Z" fill="#C0A58D"/>
<path id="path260" d="M167.194 455.304C167.276 452.786 167.468 450.702 167.65 448.977C163.92 450.679 160.365 453.184 157.76 456.867C155.159 460.545 154.262 464.324 153.989 467.22H155.672H167.728C167.349 464.144 167.037 460.067 167.194 455.304Z" fill="white"/>
<path id="path262" d="M154.572 464.258C154.266 465.478 154.086 466.627 153.989 467.664H155.672H210.571C210.777 466.47 210.913 465.338 211.001 464.258H154.572Z" fill="#B6B6B6"/>
<path id="path264" d="M171.322 450.409C170.945 450.645 170.46 450.505 170.243 450.099L168.574 446.987C168.355 446.579 168.484 446.058 168.864 445.824C169.241 445.589 169.725 445.729 169.942 446.135L171.612 449.247C171.831 449.655 171.702 450.175 171.322 450.409Z" fill="#F4F2F2"/>
<path id="path266" d="M175.365 449.464C174.987 449.699 174.503 449.559 174.284 449.153L172.616 446.041C172.398 445.633 172.527 445.113 172.904 444.877C173.284 444.643 173.766 444.781 173.985 445.189L175.655 448.301C175.874 448.709 175.745 449.23 175.365 449.464Z" fill="#F4F2F2"/>
<path id="path268" d="M179.408 448.896C179.03 449.132 178.546 448.992 178.327 448.584L176.657 445.474C176.44 445.066 176.569 444.545 176.947 444.31C177.325 444.076 177.809 444.214 178.028 444.622L179.697 447.734C179.916 448.14 179.785 448.661 179.408 448.896Z" fill="#F4F2F2"/>
<path id="path270" d="M81.5391 467.577H71.5148V244.351H81.5391V467.577Z" fill="#15154B"/>
<path id="path272" d="M272.056 252.201H57.7655V244.194H272.056V252.201Z" fill="#9594EE"/>
<path id="path274" d="M285.994 244.351H45.2414V230.838H285.994V244.351Z" fill="#B0B1CB"/>
<path id="path276" d="M399.194 313.407V306.466C399.194 300.647 395.377 295.806 390.482 295.073C381.656 299.509 370.534 307.998 350.829 313.366C342.005 315.771 333.181 316.472 315.535 317.875C303.765 318.809 293.809 319.111 285.715 319.162C287.452 322.587 290.681 324.9 294.359 324.9H389.193C394.693 324.9 399.194 319.729 399.194 313.407Z" fill="#BB2611"/>
<path id="path278" d="M399.876 252.43C400.134 252.411 400.381 252.337 400.639 252.097L414.885 181.115L414.867 181.35C414.882 181.265 414.898 181.18 414.915 181.096C414.797 180.078 414.478 179.729 414.051 179.536C412.335 178.756 408.904 180.458 405.078 183.921C404.904 191.053 404.42 199.818 402.978 210.396C400.446 228.951 396.619 240.973 395.052 248.57C396.764 251.103 398.498 252.535 399.876 252.43Z" fill="#BB2611"/>
<path id="path280" d="M351.886 458.306H347.398V324.739H351.886V458.306Z" fill="#9798AE"/>
<path id="path282" d="M227.48 467.5H284.062C285.001 462.019 284.584 457.707 284.096 454.968C283.217 450.048 281.908 449.066 281.283 448.726C279.462 447.739 277.417 448.918 275.835 449.483C272.804 450.566 267.972 450.647 260.251 445.737C255.257 445.463 251.255 446.23 248.555 446.825C242.536 448.155 235.582 451.023 231.252 457.148C228.651 460.825 227.753 464.605 227.48 467.5Z" fill="#E6C719"/>
<path id="path284" d="M240.685 455.535C240.767 453.018 240.96 450.936 241.141 449.209C237.411 450.91 233.856 453.415 231.252 457.099C228.651 460.776 227.753 464.556 227.48 467.451H229.163H241.22C240.84 464.377 240.528 460.3 240.685 455.535Z" fill="#EAEAEA"/>
<path id="path286" d="M228.064 464.046C227.757 465.265 227.577 466.415 227.48 467.451H229.163H284.062C284.268 466.257 284.404 465.125 284.492 464.046H228.064Z" fill="#DFDFDF"/>
<path id="path288" d="M244.814 450.643C244.436 450.876 243.952 450.738 243.735 450.33L242.065 447.218C241.846 446.812 241.975 446.292 242.355 446.056C242.733 445.82 243.217 445.96 243.434 446.368L245.104 449.478C245.323 449.886 245.194 450.407 244.814 450.643Z" fill="#F4F2F2"/>
<path id="path290" d="M248.856 449.697C248.479 449.931 247.994 449.793 247.776 449.385L246.108 446.273C245.889 445.865 246.018 445.344 246.396 445.111C246.775 444.875 247.258 445.015 247.476 445.421L249.146 448.533C249.365 448.941 249.236 449.461 248.856 449.697Z" fill="#F4F2F2"/>
<path id="path292" d="M252.899 449.128C252.521 449.364 252.037 449.224 251.818 448.818L250.148 445.705C249.932 445.298 250.061 444.777 250.438 444.543C250.816 444.308 251.3 444.448 251.519 444.854L253.189 447.966C253.407 448.374 253.277 448.894 252.899 449.128Z" fill="#F4F2F2"/>
<path id="path294" d="M256.121 467.94H246.426V252.201H256.121V467.94Z" fill="#15154B"/>
<path id="path296" d="M256.008 467.711H252.29V252.201H256.008V467.711Z" fill="#0D1133"/>
<path id="path298" d="M82.1507 467.577H78.237V252.201H82.1507V467.577Z" fill="#0D1133"/>
<g id="g366">
<g id="g368">
<path id="path384" d="M90.4469 103.616C89.3848 129.016 63.5826 142.396 58.1581 145.209C46.1835 151.417 20.9041 159.326 8.05854 145.209C-9.14681 126.297 2.88352 75.4885 28.216 60.4665C36.7389 55.4145 44.9027 55.5165 48.3731 55.7969C69.0744 57.4646 91.4772 78.9726 90.4469 103.616Z" fill="url(#paint2_linear)"/>
</g>
</g>
<path id="path386" d="M492.578 361.847C480.128 352.435 461.946 365.163 458.124 367.838C449.689 373.744 434.324 388.29 435.057 402.932C436.041 422.545 465.506 434.431 484.244 422.691C490.547 418.742 494.257 412.982 495.723 410.439C504.47 395.271 504.657 370.978 492.578 361.847Z" fill="#408782"/>
<path id="path388" d="M262.471 221.052C263.135 221.052 263.746 220.547 263.989 219.752C264.219 218.998 264.369 218.138 264.324 217.207C263.953 209.599 251.065 205.525 250.335 205.304C250.335 205.304 239.651 202.053 222.648 212.994C220.715 214.239 218.843 215.892 218.366 218.488L218.361 218.52C218.127 219.82 218.931 221.052 219.971 221.052H262.471Z" fill="#CEAB97"/>
<path id="path390" d="M262.493 224.345C263.157 224.345 263.771 223.84 264.012 223.045C264.244 222.291 264.391 221.431 264.347 220.5C263.978 212.892 251.087 208.818 250.36 208.597C250.36 208.597 239.675 205.346 222.671 216.287C220.737 217.532 218.866 219.185 218.389 221.781L218.383 221.813C218.151 223.113 218.954 224.345 219.995 224.345H262.493Z" fill="#D1B79F"/>
</g>
<g id="rocket">
<path id="path392" d="M172.869 54.8092L155.621 75.7522L153.037 69.8887L167.553 52.2641L172.869 54.8092Z" fill="#182044"/>
<path id="path394" d="M175.543 60.5622L160.848 78.4055L158.061 72.7884L170.429 57.7727L175.543 60.5622Z" fill="#2A386D"/>
<path id="path396" d="M171.278 20.8178C171.274 20.7944 171.27 20.7689 171.265 20.7434C163.563 21.1832 155.859 21.6229 148.155 22.0627C150.451 28.6018 152.745 35.1409 155.042 41.6821L169.989 32.8996L186.515 46.1414L188.056 44.2697L171.324 20.7626L171.278 20.8178Z" fill="#DA2C14"/>
<path id="path398" d="M125.741 76.2619C125.718 76.2577 125.698 76.2555 125.675 76.2513C125.554 67.4858 125.43 58.7202 125.309 49.9568C131.201 52.128 137.095 54.2992 142.986 56.4726L136.262 74.0036L148.979 91.8682L147.437 93.7419L125.694 76.3193L125.741 76.2619Z" fill="#DA2C14"/>
<path id="path400" d="M154.118 42.124L166.641 34.767C164.911 30.5839 162.605 25.5702 160.074 21.7717C155.791 22.016 151.511 22.2603 147.231 22.5046C149.526 29.0458 151.822 35.5849 154.118 42.124Z" fill="#BB2611"/>
<path id="path402" d="M143.392 55.4761L137.759 70.1647C133.974 68.4779 129.419 66.1962 125.918 63.5725C125.849 58.7032 125.782 53.8318 125.713 48.9604C131.607 51.1338 137.5 53.305 143.392 55.4761Z" fill="#BB2611"/>
<path id="path404" d="M146.298 13.259C130.586 -3.45842 103.392 0.539787 103.392 0.539787C103.392 0.539787 101.676 31.6419 117.388 48.3593C118.471 49.5107 119.57 50.6091 120.681 51.6543C122.326 53.203 123.998 54.6349 125.679 55.9436L148.437 75.4738L172.244 46.5683L149.499 16.6644L149.408 16.7749C148.417 15.5852 147.381 14.4104 146.298 13.259Z" fill="#BB2611"/>
<path id="path406" d="M103.278 0.41864C103.278 0.41864 102.532 13.9429 106.53 27.9474C110.215 29.4812 114.509 31.1128 119.449 32.9887C135.156 38.9563 143.172 38.8565 150.075 36.5939C152.906 35.6677 157.835 34.0531 160.227 30.7963L149.385 16.5433L149.294 16.6537C148.303 15.4619 147.267 14.2871 146.184 13.1356C130.47 -3.57961 103.278 0.41864 103.278 0.41864Z" fill="#DA2C14"/>
<path id="path408" d="M137.278 24.2105C140.376 27.5055 140.455 33.1332 137.454 36.7766C134.453 40.4222 129.507 40.7048 126.409 37.4076C123.31 34.1104 123.232 28.4849 126.233 24.8393C129.234 21.1959 134.18 20.9133 137.278 24.2105Z" fill="#2A386D"/>
<path id="path410" d="M137.278 24.2106L136.831 24.7523C137.553 25.5214 138.093 26.4264 138.456 27.4058C138.819 28.3851 139 29.441 139 30.5054C139 32.5491 138.331 34.6247 136.977 36.269C135.502 38.06 133.527 38.9628 131.573 38.9628C129.862 38.9628 128.177 38.2703 126.855 36.866C125.412 35.33 124.688 33.2438 124.686 31.1129C124.686 29.0671 125.356 26.9915 126.711 25.3472C128.185 23.5584 130.159 22.6555 132.113 22.6555C133.824 22.6555 135.509 23.3481 136.831 24.7523L137.278 24.2106L137.725 23.6667C136.152 21.9926 134.135 21.1662 132.113 21.1684C129.806 21.1662 127.48 22.237 125.754 24.3317C124.17 26.2564 123.377 28.6996 123.377 31.1129C123.376 33.6262 124.241 36.1203 125.962 37.9516C127.534 39.6257 129.552 40.4521 131.573 40.4499C133.88 40.4499 136.206 39.3793 137.932 37.2867C139.516 35.3619 140.309 32.9187 140.309 30.5054C140.311 27.9921 139.445 25.4959 137.725 23.6667L137.278 24.2106Z" fill="#ABB6D8"/>
</g>
<g id="hair">
<path id="path208" d="M273.043 77.5579C272.605 77.5132 272.071 77.4495 271.469 77.3603C270.876 77.2753 269.049 77.0013 267.162 76.4723C266.912 76.4022 263.969 75.5587 261.117 73.9696C256.095 71.1675 252.6 66.7359 251.115 64.6836C251.207 64.6815 251.302 64.6794 251.399 64.6751C253.011 67.0205 256.138 70.9019 261.194 73.7742C265.362 76.143 269.191 76.8929 271.626 77.1521C272.271 77.2583 272.94 77.3603 273.63 77.4495C273.436 77.4878 273.239 77.5239 273.043 77.5579Z" fill="url(#paint3_linear)"/>
<path id="path106" d="M284.075 78.8772C282.192 78.8772 280.631 78.754 279.446 78.5437C277.297 78.1634 275.244 77.5452 275.244 77.5452C273.625 77.0565 271.809 76.3873 269.863 75.4589C271.747 75.2486 273.668 74.9809 275.622 74.6495C275.854 74.6113 276.08 74.5645 276.312 74.5242C275.629 74.4349 274.967 74.3351 274.33 74.2289C271.923 73.9718 268.138 73.2346 264.019 70.8977C263.387 70.5387 262.247 69.8673 260.906 68.8412C258.494 66.9993 256.76 65.0427 255.616 63.5726C254.954 63.9018 254.098 64.2439 253.073 64.4606C252.462 64.5902 251.899 64.6518 251.399 64.6752C251.356 64.6114 251.313 64.5498 251.272 64.4903C253.741 64.2737 257.119 63.5088 259.922 60.832C261.439 59.3852 261.856 58.2678 263.484 56.3302C265.027 54.4968 267.484 52.1323 271.371 50.1417C271.001 50.1247 270.618 50.1162 270.225 50.1162C269.853 50.1162 269.472 50.1247 269.081 50.1417C267.477 50.2139 266.026 50.4285 264.756 50.7047C265.414 50.1035 266.357 49.2962 267.555 48.4528C273.871 44.0105 280.184 43.558 283.073 43.3901C283.432 43.3689 283.995 43.3413 284.732 43.3413C287.914 43.3413 294.311 43.8469 301.136 47.5392C305.023 49.6425 308.773 51.8859 310.02 55.984C308.825 56.4747 307.989 57.2884 307.523 57.8153C307.022 58.3804 306.405 59.1813 305.837 60.5707C305.358 61.7413 303.314 66.7359 304.584 71.3672C302.882 73.2941 300.618 75.444 297.729 77.2987C292.314 78.4353 287.626 78.8772 284.075 78.8772ZM267.503 78.4268C267.376 78.3652 267.263 78.31 267.162 78.2611C269.025 78.1464 270.951 77.9276 272.933 77.5792C272.968 77.5728 273.006 77.5664 273.043 77.5579C273.174 77.5728 273.297 77.5855 273.41 77.5961C273.181 77.6386 272.951 77.6811 272.72 77.7215C270.941 78.0359 269.201 78.2675 267.503 78.4268Z" fill="url(#paint4_linear)"/>
<path id="path226" d="M282.217 81.8514C282.119 81.8514 282.02 81.8514 281.923 81.8493C280.435 81.8345 279.012 81.7134 277.673 81.52C272.826 80.8211 269.103 79.1937 267.503 78.4268C269.201 78.2675 270.941 78.0359 272.72 77.7215C272.952 77.6811 273.182 77.6386 273.41 77.5961C273.297 77.5855 273.174 77.5728 273.043 77.5579C273.24 77.5239 273.436 77.4878 273.63 77.4496C272.94 77.3603 272.271 77.2584 271.626 77.1521C269.191 76.893 265.362 76.143 261.194 73.7742C256.138 70.902 253.011 67.0205 251.399 64.6751C251.899 64.6518 252.462 64.5902 253.073 64.4606C254.098 64.2439 254.954 63.9018 255.616 63.5725C256.76 65.0426 258.494 66.9993 260.906 68.8412C262.247 69.8673 263.387 70.5387 264.019 70.8977C268.139 73.2346 271.923 73.9718 274.33 74.2288C274.967 74.3351 275.629 74.4349 276.312 74.5241C276.08 74.5645 275.854 74.6113 275.622 74.6495C273.668 74.9809 271.747 75.2486 269.863 75.4589C271.809 76.3873 273.625 77.0565 275.244 77.5452C275.244 77.5452 277.297 78.1634 279.446 78.5437C280.631 78.754 282.192 78.8772 284.075 78.8772C287.626 78.8772 292.314 78.4353 297.729 77.2987C296.884 77.8426 295.985 78.3588 295.031 78.8389C290.573 81.0781 286.173 81.8514 282.217 81.8514Z" fill="url(#paint5_linear)"/>
</g>
</g>
<defs>
<linearGradient id="paint0_linear" x1="304.176" y1="70.8615" x2="323.538" y2="70.8543" gradientUnits="userSpaceOnUse">
<stop stop-color="#0E0F18"/>
<stop offset="0.640704" stop-color="#1C1E30"/>
<stop offset="1" stop-color="#1C1E30"/>
</linearGradient>
<linearGradient id="paint1_linear" x1="304.176" y1="70.8616" x2="323.539" y2="70.8544" gradientUnits="userSpaceOnUse">
<stop stop-color="#BDA691"/>
<stop offset="0.640704" stop-color="#BFA794"/>
<stop offset="1" stop-color="#BFA794"/>
</linearGradient>
<linearGradient id="paint2_linear" x1="-4.35413e-06" y1="104.396" x2="90.4817" y2="104.396" gradientUnits="userSpaceOnUse">
<stop stop-color="#408782"/>
<stop offset="1" stop-color="#408782"/>
</linearGradient>
<linearGradient id="paint3_linear" x1="508.262" y1="244.619" x2="11.3864" y2="244.619" gradientUnits="userSpaceOnUse">
<stop stop-color="#D5BEBA"/>
<stop offset="0.186486" stop-color="#D5BEBA"/>
<stop offset="0.527027" stop-color="#D3BAB2"/>
<stop offset="0.95871" stop-color="#D3BAB2"/>
<stop offset="1" stop-color="#D3BAB2"/>
</linearGradient>
<linearGradient id="paint4_linear" x1="251.272" y1="62.5974" x2="310.496" y2="62.5974" gradientUnits="userSpaceOnUse">
<stop stop-color="#0E0F18"/>
<stop offset="0.640704" stop-color="#1C1E30"/>
<stop offset="1" stop-color="#1C1E30"/>
</linearGradient>
<linearGradient id="paint5_linear" x1="251.272" y1="62.5974" x2="310.496" y2="62.5974" gradientUnits="userSpaceOnUse">
<stop stop-color="#CFB8A9"/>
<stop offset="0.640704" stop-color="#D1B9AC"/>
<stop offset="1" stop-color="#D1B9AC"/>
</linearGradient>
</defs>
</svg>
