<svg width="120" height="100" viewBox="0 0 120 100" fill="none" xmlns="http://www.w3.org/2000/svg">
<path d="M103.272 57.464C99.0795 57.4862 95.4473 58.61 92.4003 60.279C91.2846 57.8089 90.1589 55.6337 89.9688 54.0148C89.7487 52.1289 89.4935 50.9995 89.7587 48.752C90.0239 46.5045 91.1946 43.3223 91.1796 43.0831C91.1646 42.8439 90.9194 41.6978 88.4979 41.6812C86.0764 41.6645 84.0101 42.1985 83.7649 42.9106C83.5198 43.6227 83.0545 45.2194 82.7643 46.8883C82.3391 49.325 77.9363 58.0259 75.4347 62.5766C74.6142 60.8019 73.9188 59.2331 73.7737 57.9981C73.5535 56.1121 73.2984 54.9828 73.5635 52.7353C73.8287 50.4877 74.9994 47.3056 74.9844 47.0663C74.9694 46.8271 74.7243 45.6811 72.3028 45.6644C69.8812 45.6477 67.8149 46.1818 67.5698 46.8939C67.3246 47.606 67.0645 49.2638 66.5692 50.8716C66.0739 52.4793 60.2152 66.9882 58.6842 70.7489C57.9037 72.6627 57.2233 74.2037 56.743 75.2551L56.738 75.2496C56.738 75.2496 56.708 75.3219 56.658 75.4387C56.2477 76.3344 56.0026 76.8295 56.0026 76.8295C56.0026 76.8295 56.0076 76.8351 56.0076 76.8462C55.6824 77.5027 55.3321 78.1146 55.157 78.1146C55.0369 78.1146 54.7918 76.3678 55.2121 73.9645C56.0826 68.9298 58.1789 61.0801 58.1539 60.813C58.1439 60.674 58.5441 59.3054 56.788 58.5933C55.082 57.8979 54.4716 59.0551 54.3165 59.0606C54.1664 59.0662 54.0513 59.4723 54.0513 59.4723C54.0513 59.4723 55.9525 50.6435 50.4241 50.6435C46.9669 50.6435 42.1789 54.8493 39.8174 58.6601C38.3265 59.5613 35.1395 61.4973 31.7624 63.5613C30.4616 64.3568 29.1407 65.1635 27.8799 65.9368C27.7949 65.8311 27.7098 65.7253 27.6198 65.6197C20.9156 57.6643 8.51782 52.0399 9.04315 41.3474C9.23327 37.4587 10.449 27.2224 32.8581 14.8053C51.2146 4.63574 65.9138 7.43404 68.4503 13.637C72.0776 22.4992 60.5954 38.9719 41.5335 41.3474C34.2689 42.2542 30.4466 39.1221 29.496 37.9594C28.4953 36.7299 28.3452 36.6743 27.97 36.9079C27.3596 37.2807 27.7449 38.3655 27.97 39.0108C28.5404 40.6575 30.8768 43.5782 34.8593 45.0302C38.3615 46.3097 46.8918 47.0107 57.2033 42.5768C68.7555 37.6089 77.7762 23.7899 75.1245 12.2351C72.4278 0.485588 54.9119 -3.37528 38.3265 3.17262C28.4703 7.05018 17.7886 13.1697 10.1088 21.1585C0.978105 30.6549 -0.48281 38.9274 0.117566 42.3821C2.2489 54.6546 17.4634 62.6489 23.5572 68.5737C23.2571 68.7573 22.9769 68.9298 22.7167 69.0911C19.6598 70.7712 8.06254 77.5194 5.16072 84.6514C1.86866 92.7403 5.68605 98.5427 8.20763 99.3271C16.0325 101.747 24.0626 97.3911 28.3753 90.2369C32.688 83.0826 32.1626 73.7642 30.1814 69.5139C30.1564 69.4638 30.1314 69.4082 30.1063 69.3581C30.8968 68.8407 31.6973 68.3122 32.4978 67.7893C34.0538 66.7768 35.5798 65.8255 36.9006 65.0244C36.1601 67.283 35.6148 69.9868 35.3346 73.8977C35.0094 78.4818 36.7055 84.4177 38.9169 86.7543C39.8925 87.7835 41.0632 87.8057 41.8087 87.8057C44.3853 87.8057 45.561 85.4247 46.8568 82.6041C48.4428 79.1438 49.8537 75.1216 49.8537 75.1216C49.8537 75.1216 48.0876 85.9977 52.9056 85.9977C54.6617 85.9977 56.4278 83.4664 57.2133 82.1758C57.2133 82.1925 57.2183 82.198 57.2183 82.198C57.2183 82.198 57.2633 82.1146 57.3534 81.9477C57.5335 81.6361 57.6386 81.4414 57.6386 81.4414C57.6386 81.4414 57.6436 81.4192 57.6486 81.3858C58.354 80.0228 59.92 76.9185 62.2665 71.7948C65.2984 65.1746 68.2052 56.8854 68.2052 56.8854C68.2052 56.8854 68.4754 58.9104 69.3609 62.265C69.8812 64.2344 70.9919 66.4152 71.8625 68.507C71.157 69.5918 70.7268 70.2149 70.7268 70.2149C70.7268 70.2149 70.7318 70.226 70.7368 70.2482C70.1764 71.0772 69.546 71.9728 68.8856 72.8463C66.4941 76.0173 63.6423 79.6334 63.2621 80.6793C62.8118 81.9087 62.9169 82.8155 63.7874 83.5443C64.4228 84.0784 65.5535 84.1563 66.7343 84.0728C68.8856 83.9115 70.3966 83.3162 71.147 82.9602C72.3128 82.504 73.6686 81.7808 74.9394 80.7404C77.2859 78.8211 78.7018 76.0729 78.5667 72.4401C78.4916 70.4374 77.9163 68.4513 77.1908 66.5765C77.406 66.2372 77.6161 65.8923 77.8312 65.5418C81.5335 59.5279 84.4053 52.9133 84.4053 52.9133C84.4053 52.9133 84.6755 54.9383 85.5611 58.2929C86.0113 59.9897 86.8919 61.8422 87.6924 63.6558C84.2102 66.799 82.0539 70.4541 81.3034 72.8518C79.9175 77.2857 81.0032 79.294 83.0395 79.7502C83.9601 79.956 85.2659 79.4887 86.2415 79.027C87.4623 78.5764 88.9232 77.8309 90.294 76.7127C92.6405 74.7934 94.8969 72.1064 94.7618 68.468C94.7018 66.8102 94.2965 65.169 93.7462 63.5891C96.698 62.2205 100.515 61.4639 105.378 62.0926C115.815 63.45 117.861 70.6933 117.471 73.7252C117.081 76.7572 114.889 78.4262 114.159 78.9268C113.429 79.4275 113.203 79.6056 113.263 79.9783C113.353 80.5235 113.689 80.5012 114.314 80.3844C115.175 80.2231 119.792 77.9199 119.993 72.3177C120.243 65.2024 114.119 57.3972 103.272 57.464ZM22.8268 87.6166C19.3696 91.8112 14.5416 93.3968 12.4703 92.0616C10.2339 90.6207 11.1195 84.4456 15.3621 79.995C17.9487 77.2857 21.2858 74.7878 23.5022 73.2468C24.0075 72.9074 24.748 72.4123 25.6486 71.8171C25.7986 71.7225 25.8837 71.6724 25.8837 71.6724L25.8787 71.6669C26.0538 71.55 26.2289 71.4332 26.414 71.3108C27.955 77.6417 26.4541 83.2161 22.8268 87.6166ZM48.0126 68.5793C46.8068 71.8449 44.2902 80.1953 42.7543 79.7446C41.4384 79.3608 40.6379 73.0132 42.4891 66.7657C43.4247 63.6225 45.4159 59.8617 46.5917 58.4042C48.4778 56.0565 50.5541 55.2888 51.0595 56.2401C51.7049 57.4584 48.768 66.5376 48.0126 68.5793ZM68.8156 79.6222C68.3053 79.9171 67.835 80.1062 67.6198 79.9616C67.4597 79.8559 67.83 79.4665 67.83 79.4665C67.83 79.4665 70.4316 76.3511 71.4572 74.938C72.0526 74.1147 72.743 73.1355 73.4985 72.0396C73.5035 72.1509 73.5085 72.2566 73.5085 72.3623C73.5035 76.0896 70.2615 78.6097 68.8156 79.6222ZM84.8456 75.5555C84.4654 75.2551 84.5304 74.2816 85.7812 71.2496C86.2715 70.0591 87.3922 68.0563 89.3434 66.137C89.5686 66.927 89.7087 67.678 89.7037 68.3846C89.6786 73.0799 86.6668 74.8323 84.8456 75.5555Z" fill="#66FCF1"/>
</svg>
