<svg width="283" height="598" viewBox="0 0 283 598" fill="none" xmlns="http://www.w3.org/2000/svg">
<path d="M135.456 442.887C138.104 455.683 140.76 476.664 142.224 497.266C143.888 520.668 143.888 541.225 142.013 554.348C140.716 563.43 147.026 571.844 156.108 573.141C165.19 574.438 173.604 568.128 174.901 559.046C177.179 543.099 177.179 520.469 175.363 494.911C173.802 472.94 170.965 450.539 167.989 436.156C166.131 427.172 157.341 421.396 148.357 423.255C139.374 425.113 133.598 433.903 135.456 442.887Z" fill="#EBBAAA"/>
<path d="M66.8717 436.121C62.7585 458.908 62.1945 482.517 64.5754 506.59C66.4727 525.774 70.1393 544.403 75.0975 562.445C77.5285 571.291 86.6704 576.492 95.5165 574.061C104.363 571.63 109.563 562.488 107.132 553.642C102.644 537.312 99.3353 520.499 97.6364 503.32C95.5426 482.15 96.0338 461.588 99.5656 442.023C101.195 432.995 95.1976 424.355 86.1694 422.725C77.1413 421.095 68.5014 427.093 66.8717 436.121Z" fill="#EBBAAA"/>
<path d="M50.1675 419.152H118.95L112.664 495.64L41.2814 486.661L50.1675 419.152Z" fill="#283433"/>
<path d="M117.643 452.124C145.804 452.124 168.633 441.31 168.633 427.97C168.633 414.631 145.804 403.817 117.643 403.817C89.482 403.817 66.6529 414.631 66.6529 427.97C66.6529 441.31 89.482 452.124 117.643 452.124Z" fill="#283433"/>
<path d="M115.358 419.152H182.118L190.332 487.559L128.154 493.844L115.358 419.152Z" fill="#283433"/>
<path d="M109.783 406.285L105.743 431.426C105.487 433.017 106.569 434.515 108.161 434.77C109.752 435.026 111.249 433.943 111.505 432.352L115.545 407.211C115.801 405.62 114.719 404.122 113.127 403.867C111.536 403.611 110.039 404.694 109.783 406.285Z" fill="#E5ECF3"/>
<path d="M118.736 411.933L120.98 438.421C121.116 440.027 122.529 441.218 124.134 441.082C125.74 440.946 126.932 439.534 126.796 437.928L124.551 411.44C124.415 409.834 123.003 408.643 121.397 408.779C119.791 408.915 118.599 410.327 118.736 411.933Z" fill="#E5ECF3"/>
<path d="M34.5472 578.695C40.8325 572.859 64.3273 564.329 75.4015 559.839L105.032 544.575L110.868 571.961V583.634C110.868 588.841 106.647 593.061 101.441 593.061H34.5472C31.5543 587.975 29.2572 583.607 34.5472 578.695Z" fill="#EBBAAA"/>
<path d="M24.2214 598C24.2214 593.039 28.2414 589.021 33.2003 589.021H112.664L114.46 598H24.2214Z" fill="#283433"/>
<path d="M41.3101 588.039C41.3079 588.032 41.2742 587.909 41.2323 587.699C41.0521 586.798 41.0521 585.839 41.3101 585.065C41.5025 584.488 41.8805 583.623 42.3937 582.585C42.539 582.291 42.6936 581.986 42.8563 581.672C43.2791 580.856 43.7355 580.019 44.1922 579.21C44.3522 578.926 44.5004 578.667 44.6328 578.439C44.7107 578.304 44.7649 578.212 44.7912 578.167C45.8634 576.353 45.2617 574.013 43.4472 572.94C41.6328 571.868 39.2927 572.47 38.2205 574.285C38.1833 574.348 38.118 574.459 38.0287 574.613C37.8825 574.866 37.7203 575.149 37.5459 575.458C37.0473 576.341 36.5485 577.257 36.0797 578.161C35.8956 578.517 35.7193 578.864 35.5518 579.203C34.8969 580.528 34.3945 581.676 34.0696 582.651C33.3299 584.87 33.3299 587.104 33.7483 589.196C33.856 589.734 33.972 590.159 34.0696 590.452C34.7361 592.452 36.8972 593.532 38.8966 592.866C40.896 592.199 41.9765 590.038 41.3101 588.039Z" fill="#283433"/>
<path d="M41.6396 592.141C41.6793 591.952 41.831 591.441 42.1286 590.722C42.6506 589.461 43.3832 588.193 44.3508 587.016C47.1307 583.637 51.2759 581.613 57.4436 581.613C63.7831 581.613 68.8431 583.792 72.8647 587.459C74.2801 588.749 75.4594 590.134 76.4056 591.509C76.7293 591.979 76.9979 592.409 77.2121 592.784C77.3257 592.982 77.3875 593.1 77.3987 593.123L85.0771 589.408C84.983 589.214 84.8309 588.924 84.6183 588.552C84.2889 587.975 83.8945 587.345 83.4325 586.673C82.134 584.786 80.5355 582.909 78.6118 581.155C73.0933 576.124 66.0316 573.083 57.4436 573.083C48.6837 573.083 42.1383 576.279 37.7631 581.598C36.2264 583.466 35.0755 585.459 34.2472 587.46C33.9528 588.171 33.718 588.84 33.5358 589.453C33.4167 589.853 33.3373 590.17 33.2911 590.39L41.6396 592.141Z" fill="#283433"/>
<path d="M45.5312 589.827L53.6122 588.48C57.2809 587.869 59.7592 584.399 59.1477 580.731C58.5363 577.062 55.0666 574.584 51.398 575.195L43.317 576.542C39.6484 577.154 37.17 580.623 37.7815 584.292C38.3929 587.96 41.8626 590.439 45.5312 589.827Z" fill="#DCB1A3"/>
<path d="M214.127 577.348C207.841 571.512 184.347 562.982 173.272 558.493L143.642 543.228L137.805 570.614V582.287C137.805 587.495 142.026 591.715 147.233 591.715H214.127C217.12 586.628 219.417 582.26 214.127 577.348Z" fill="#EBBAAA"/>
<path d="M224.453 596.653C224.453 591.692 220.433 587.674 215.474 587.674H136.01L134.214 596.653H224.453Z" fill="#283433"/>
<path d="M214.604 589.105C214.702 588.813 214.818 588.387 214.926 587.849C215.344 585.757 215.344 583.524 214.604 581.305C214.279 580.33 213.777 579.181 213.122 577.857C212.955 577.518 212.778 577.17 212.594 576.815C212.125 575.91 211.627 574.995 211.128 574.111C210.954 573.802 210.791 573.519 210.645 573.267C210.556 573.112 210.491 573.001 210.453 572.938C209.381 571.123 207.041 570.522 205.227 571.594C203.412 572.666 202.811 575.006 203.883 576.821C203.909 576.865 203.963 576.958 204.041 577.092C204.174 577.321 204.322 577.58 204.482 577.863C204.938 578.672 205.395 579.51 205.818 580.326C205.98 580.64 206.135 580.945 206.28 581.239C206.793 582.277 207.171 583.141 207.364 583.718C207.622 584.492 207.622 585.451 207.442 586.352C207.4 586.562 207.366 586.685 207.364 586.692C206.697 588.691 207.778 590.852 209.777 591.519C211.777 592.185 213.938 591.105 214.604 589.105Z" fill="#283433"/>
<path d="M215.383 589.044C215.337 588.824 215.257 588.507 215.138 588.106C214.956 587.493 214.721 586.824 214.427 586.113C213.598 584.112 212.448 582.119 210.911 580.251C206.536 574.932 199.99 571.737 191.23 571.737C182.642 571.737 175.581 574.777 170.062 579.809C168.139 581.563 166.54 583.44 165.241 585.327C164.779 585.998 164.385 586.629 164.056 587.205C163.843 587.577 163.691 587.867 163.597 588.061L171.275 591.777C171.286 591.754 171.348 591.636 171.462 591.437C171.676 591.062 171.945 590.633 172.268 590.162C173.215 588.787 174.394 587.403 175.809 586.112C179.831 582.445 184.891 580.267 191.23 580.267C197.398 580.267 201.543 582.29 204.323 585.67C205.291 586.846 206.023 588.115 206.545 589.376C206.843 590.095 206.995 590.605 207.034 590.794L215.383 589.044Z" fill="#283433"/>
<path d="M205.357 575.195L197.276 573.849C193.607 573.237 190.138 575.715 189.526 579.384C188.915 583.053 191.393 586.522 195.062 587.134L203.143 588.481C206.811 589.092 210.281 586.614 210.893 582.945C211.504 579.276 209.026 575.807 205.357 575.195Z" fill="#DCB1A3"/>
<path d="M69.857 285.234C70.9545 283.584 72.1132 281.856 73.402 279.944C74.9811 277.602 80.451 269.536 81.4036 268.126C84.5033 263.537 86.8134 260.067 88.8988 256.844C93.8826 249.141 91.6789 238.857 83.9766 233.873C76.2743 228.89 65.9902 231.093 61.0064 238.796C59.0629 241.799 56.8612 245.107 53.8737 249.53C52.9468 250.902 47.4659 258.984 45.8559 261.372C44.5317 263.336 43.3364 265.119 42.1985 266.829C35.8059 276.436 31.049 284.022 27.2097 290.933L26.3623 292.695C18.6078 311.597 14.77 326.053 13.6078 341.162C12.6092 354.143 13.3777 365.671 16.2568 389.855C17.3412 398.965 25.6053 405.471 34.715 404.386C43.8248 403.302 50.3305 395.038 49.246 385.928C46.6153 363.83 45.951 353.865 46.7322 343.71C47.5856 332.616 50.4567 321.648 56.7245 306.221C59.9831 300.435 64.1922 293.747 69.857 285.234Z" fill="#EBBAAA"/>
<path d="M43.4768 271.675C45.5446 247.271 65.9565 228.515 90.4481 228.515H138.385C162.725 228.515 183.063 247.046 185.322 271.281L191.23 334.681L187.19 425.604L42.6283 428.297L38.1388 334.681L43.4768 271.675Z" fill="#6FB5B0"/>
<path d="M116.716 266.567C134.079 266.567 148.154 252.32 148.154 234.746C148.154 217.172 134.079 202.925 116.716 202.925C99.3536 202.925 85.2785 217.172 85.2785 234.746C85.2785 252.32 99.3536 266.567 116.716 266.567Z" fill="#993030"/>
<path d="M117.26 200.238H117.26C107.732 200.238 100.008 207.962 100.008 217.491V234.743C100.008 244.271 107.732 251.995 117.26 251.995H117.26C126.788 251.995 134.512 244.271 134.512 234.743V217.491C134.512 207.962 126.788 200.238 117.26 200.238Z" fill="#EBBAAA"/>
<path d="M160.628 258.962C161.787 264.321 163.598 269.549 166.344 276.036C167.512 278.796 172.23 289.322 173.309 291.841C177.817 302.358 180.684 311.041 182.536 320.917C186.063 339.726 198.997 355.458 216.425 364.732C233.381 373.754 252.822 375.668 267.797 368.18C276.003 364.077 279.329 354.099 275.226 345.894C271.123 337.688 261.145 334.362 252.94 338.465C248.667 340.601 240.241 339.772 232.031 335.403C223.004 330.6 216.719 322.956 215.189 314.794C212.831 302.22 209.236 291.331 203.845 278.753C202.611 275.873 197.934 265.439 196.938 263.086C194.932 258.347 193.743 254.914 193.1 251.941C191.161 242.974 182.32 237.277 173.354 239.216C164.387 241.155 158.689 249.995 160.628 258.962Z" fill="#EBBAAA"/>
<path d="M1.27288 290.382C-0.44179 288.621 -0.421587 285.809 1.31818 284.073L58.3383 227.168L84.9642 287.205L35.8909 325.937L1.27288 290.382Z" fill="#283433"/>
<path d="M41.3663 256.236C42.8357 236.552 59.2349 221.332 78.9729 221.332H91.3307C95.3111 221.332 98.9372 223.62 100.65 227.213L111.763 250.513L106.376 339.405V414.639C106.376 417.015 104.525 418.979 102.153 419.121L35.9762 423.06C33.2995 423.219 31.0807 421.011 31.2268 418.334L36.5643 320.549L41.3663 256.236Z" fill="#283433"/>
<path d="M112.661 250.962L100.988 215.944L84.3774 220.883L94.7032 263.533L112.661 250.962Z" fill="#494C50"/>
<path d="M233.032 290.382C234.747 288.621 234.726 285.809 232.986 284.073L175.966 227.168L149.34 287.205L198.414 325.937L233.032 290.382Z" fill="#283433"/>
<path d="M192.939 256.236C191.469 236.552 175.07 221.332 155.332 221.332H142.974C138.993 221.332 135.367 223.62 133.654 227.213L122.541 250.513L127.929 339.405V414.639C127.929 417.015 129.78 418.979 132.151 419.121L198.328 423.06C201.005 423.219 203.224 421.011 203.078 418.334L197.74 320.549L192.939 256.236Z" fill="#283433"/>
<path d="M121.643 250.962L133.316 215.944L149.927 220.883L139.601 263.533L121.643 250.962Z" fill="#494C50"/>
<path d="M133.765 307.081C135.501 307.081 136.908 305.674 136.908 303.939C136.908 302.203 135.501 300.796 133.765 300.796C132.029 300.796 130.622 302.203 130.622 303.939C130.622 305.674 132.029 307.081 133.765 307.081Z" fill="#5F6368"/>
<path d="M135.561 334.467C137.296 334.467 138.703 333.06 138.703 331.324C138.703 329.589 137.296 328.182 135.561 328.182C133.825 328.182 132.418 329.589 132.418 331.324C132.418 333.06 133.825 334.467 135.561 334.467Z" fill="#5F6368"/>
<path d="M136.01 360.506C137.745 360.506 139.152 359.099 139.152 357.363C139.152 355.628 137.745 354.221 136.01 354.221C134.274 354.221 132.867 355.628 132.867 357.363C132.867 359.099 134.274 360.506 136.01 360.506Z" fill="#5F6368"/>
<path d="M136.01 386.545C137.745 386.545 139.152 385.138 139.152 383.402C139.152 381.667 137.745 380.26 136.01 380.26C134.274 380.26 132.867 381.667 132.867 383.402C132.867 385.138 134.274 386.545 136.01 386.545Z" fill="#5F6368"/>
<path d="M131.52 279.695C133.256 279.695 134.663 278.288 134.663 276.553C134.663 274.817 133.256 273.41 131.52 273.41C129.785 273.41 128.378 274.817 128.378 276.553C128.378 278.288 129.785 279.695 131.52 279.695Z" fill="#5F6368"/>
<path d="M232.16 308.949L278.882 313.86L267.401 384.013L228.804 379.957L232.16 308.949Z" fill="#45A09A"/>
<path fill-rule="evenodd" clip-rule="evenodd" d="M232.35 305.285L279.392 310.696L276.974 326.386L231.636 321.58L232.35 305.285Z" fill="#377E79"/>
<path fill-rule="evenodd" clip-rule="evenodd" d="M229.657 364.097L270.117 368.096L267.699 383.785L228.942 380.392L229.657 364.097Z" fill="#377E79"/>
<path d="M252.512 359.608C260.322 359.608 266.654 353.277 266.654 345.466C266.654 337.656 260.322 331.324 252.512 331.324C244.702 331.324 238.37 337.656 238.37 345.466C238.37 353.277 244.702 359.608 252.512 359.608Z" fill="#DDE3E6"/>
<path d="M280.084 303.775L233.362 298.864L232.264 309.302L278.986 314.213L280.084 303.775Z" fill="white"/>
<path d="M282.439 310.053L229.752 304.515L228.655 314.953L281.342 320.491L282.439 310.053Z" fill="#DDE3E6"/>
<path d="M262.838 389.688C273.623 389.688 282.367 381.145 282.367 370.607C282.367 360.07 273.623 351.527 262.838 351.527C252.052 351.527 243.308 360.07 243.308 370.607C243.308 381.145 252.052 389.688 262.838 389.688Z" fill="#EBBAAA"/>
<path d="M43.9024 163.817C58.3006 163.817 69.9726 152.746 69.9726 139.088C69.9726 125.431 58.3006 114.36 43.9024 114.36C29.5042 114.36 17.8321 125.431 17.8321 139.088C17.8321 152.746 29.5042 163.817 43.9024 163.817Z" fill="#EBBAAA"/>
<path d="M190.739 165.734C205.137 165.734 216.809 154.663 216.809 141.005C216.809 127.348 205.137 116.277 190.739 116.277C176.341 116.277 164.669 127.348 164.669 141.005C164.669 154.663 176.341 165.734 190.739 165.734Z" fill="#EBBAAA"/>
<path d="M38.8535 93.4541C38.1186 49.7426 73.3507 13.9128 117.068 13.9128C160.786 13.9128 196.018 49.7426 195.283 93.4541L194.307 151.509C193.598 193.659 159.225 227.459 117.068 227.459C74.9113 227.459 40.5389 193.659 39.83 151.509L38.8535 93.4541Z" fill="#EED4CC"/>
<path fill-rule="evenodd" clip-rule="evenodd" d="M100.833 172.925L102.071 180.743C103.977 192.778 115.278 200.988 127.313 199.082C139.347 197.176 147.558 185.875 145.652 173.84L144.414 166.022L100.833 172.925Z" fill="#393939"/>
<mask id="mask0" mask-type="alpha" maskUnits="userSpaceOnUse" x="100" y="164" width="46" height="36">
<path d="M100.641 171.478C100.684 171.903 100.739 172.331 100.807 172.759L102.071 180.743C103.977 192.777 115.279 200.988 127.313 199.082C139.348 197.176 147.558 185.875 145.652 173.841L144.387 165.856C144.32 165.428 144.24 165.005 144.149 164.587L100.641 171.478Z" fill="white"/>
</mask>
<g mask="url(#mask0)">
<path d="M128.419 204.721C135.677 203.572 141.053 199.438 140.427 195.488C139.802 191.537 133.411 189.267 126.154 190.416C118.896 191.566 113.52 195.7 114.146 199.65C114.771 203.6 121.162 205.871 128.419 204.721Z" fill="#FF6C6C"/>
<path d="M144.414 166.023L100.833 172.925L102.255 181.908L145.836 175.005L144.414 166.023Z" fill="white"/>
</g>
<path d="M73.3505 108.833L98.5154 106.188C101.474 105.877 103.621 103.226 103.31 100.267C102.999 97.3075 100.348 95.1608 97.389 95.4718L72.2241 98.1171C69.265 98.4281 67.1184 101.079 67.4294 104.038C67.7405 106.997 70.3914 109.144 73.3505 108.833Z" fill="#393939"/>
<path d="M86.2895 123.339V136.029C86.2895 139.005 88.7015 141.417 91.6768 141.417C94.6522 141.417 97.0642 139.005 97.0642 136.029V123.339C97.0642 120.363 94.6522 117.951 91.6768 117.951C88.7015 117.951 86.2895 120.363 86.2895 123.339Z" fill="black"/>
<path d="M139.196 123.339V136.029C139.196 139.005 141.608 141.417 144.584 141.417C147.559 141.417 149.971 139.005 149.971 136.029V123.339C149.971 120.363 147.559 117.951 144.584 117.951C141.608 117.951 139.196 120.363 139.196 123.339Z" fill="black"/>
<path d="M134.549 100.984L159.713 103.629C162.673 103.94 165.324 101.794 165.635 98.8345C165.946 95.8754 163.799 93.2245 160.84 92.9134L135.675 90.2682C132.716 89.9572 130.065 92.1038 129.754 95.0629C129.443 98.022 131.589 100.673 134.549 100.984Z" fill="#393939"/>
<path d="M33.304 48.0554C33.304 32.8868 44.2934 19.7502 59.2627 17.2991L130.046 5.70877C147.668 2.8234 164.214 14.9997 166.698 32.6821C169.147 50.0999 156.999 66.1997 139.578 68.6263L68.2184 78.566C49.7993 81.2224 33.304 66.6653 33.304 48.0554Z" fill="#393939"/>
<path d="M45.7709 69.3626C45.7709 66.5112 43.4594 64.1997 40.608 64.1997C37.7566 64.1997 35.4451 66.5112 35.4451 69.3626V114.258C35.4451 117.109 37.7566 119.42 40.608 119.42C43.4594 119.42 45.7709 117.109 45.7709 114.258V69.3626Z" fill="#393939"/>
<path d="M65.0757 65.5466C58.2517 69.8565 50.7093 70.485 45.322 92.9325L41.7304 70.485C52.3556 67.0434 71.8997 61.2367 65.0757 65.5466Z" fill="#393939"/>
<path d="M196.618 76.0968C196.618 73.2454 194.306 70.9338 191.455 70.9338C188.603 70.9338 186.292 73.2454 186.292 76.0968V120.543C186.292 123.394 188.603 125.706 191.455 125.706C194.306 125.706 196.618 123.394 196.618 120.543V76.0968Z" fill="#393939"/>
<path d="M189.778 29.1595C185.335 17.2769 172.101 11.2458 160.219 15.6885C148.336 20.1312 142.305 33.3653 146.748 45.2478L154.584 66.2077C159.027 78.0902 172.261 84.1214 184.143 79.6787C196.026 75.236 202.057 62.0018 197.614 50.1193L189.778 29.1595Z" fill="#393939"/>
<path d="M149.898 0C148.671 15.7798 148.58 33.7786 148.58 33.7786L173.284 17.0126C173.284 17.0126 160.441 13.8073 149.898 0Z" fill="#393939"/>
<path d="M52.9541 89.9029C55.0507 76.9894 57.8306 70.5245 55.0507 60.1592H193.924V98.7688L186.078 94.4095C186.078 80.2523 170.233 85.6514 161.697 76.9894C148.096 63.1887 132.683 77.9793 123.73 86.8891C123.73 75.999 118.528 76.2468 113.948 74.0196C114.614 84.3153 98.0393 91.1461 86.7959 91.1461C86.7959 80.009 86.8807 80.7017 81.8835 76.9894C71.238 80.5953 65.1448 76.9894 52.9541 89.9029Z" fill="#393939"/>
<path d="M85.0539 154.887C97.8232 154.887 108.175 144.536 108.175 131.767C108.175 118.997 97.8232 108.646 85.0539 108.646C72.2846 108.646 61.9331 118.997 61.9331 131.767C61.9331 144.536 72.2846 154.887 85.0539 154.887Z" fill="black" fill-opacity="0.2"/>
<path d="M146.56 155.336C159.329 155.336 169.681 144.985 169.681 132.215C169.681 119.446 159.329 109.094 146.56 109.094C133.791 109.094 123.439 119.446 123.439 132.215C123.439 144.985 133.791 155.336 146.56 155.336Z" fill="black" fill-opacity="0.2"/>
<path d="M85.4391 156.372C98.9904 156.372 109.976 145.387 109.976 131.836C109.976 118.285 98.9904 107.299 85.4391 107.299C71.8879 107.299 60.9025 118.285 60.9025 131.836C60.9025 145.387 71.8879 156.372 85.4391 156.372ZM85.4391 151.883C74.3674 151.883 65.392 142.908 65.392 131.836C65.392 120.764 74.3674 111.789 85.4391 111.789C96.5109 111.789 105.486 120.764 105.486 131.836C105.486 142.908 96.5109 151.883 85.4391 151.883Z" fill="#2E2622"/>
<path d="M146.397 157.523C159.949 157.523 170.934 146.537 170.934 132.986C170.934 119.435 159.949 108.449 146.397 108.449C132.846 108.449 121.861 119.435 121.861 132.986C121.861 146.537 132.846 157.523 146.397 157.523ZM146.397 153.033C135.326 153.033 126.35 144.058 126.35 132.986C126.35 121.914 135.326 112.939 146.397 112.939C157.469 112.939 166.445 121.914 166.445 132.986C166.445 144.058 157.469 153.033 146.397 153.033Z" fill="#2E2622"/>
<path d="M107.656 134.008L124.141 134.152C125.381 134.163 126.394 133.167 126.405 131.927C126.416 130.687 125.42 129.674 124.18 129.663L107.695 129.519C106.455 129.508 105.442 130.505 105.431 131.744C105.42 132.984 106.416 133.998 107.656 134.008Z" fill="#2E2622"/>
<path d="M110.437 135.064C110.291 136.124 110.126 136.84 109.346 139.974C109.156 140.734 109.022 141.286 108.893 141.839C107.938 145.941 107.642 148.745 108.267 151.351C109.249 155.442 112.501 157.802 117.284 157.802V150.17C116.793 150.17 116.409 150.124 116.127 150.048C115.962 150.003 115.87 149.96 115.824 149.927C115.793 149.905 115.754 149.841 115.689 149.57C115.428 148.481 115.63 146.559 116.326 143.57C116.445 143.063 116.571 142.544 116.752 141.819C117.62 138.333 117.798 137.559 117.998 136.101L110.437 135.064Z" fill="#EBBAAA"/>
</svg>
