<svg width="81" height="122" viewBox="0 0 81 122" fill="none" xmlns="http://www.w3.org/2000/svg">
<path d="M0 97L38.7775 18.2271C39.5945 16.5669 41.804 16.5972 42.5804 18.2822L56 47.3601L0 97Z" fill="#53EADF"/>
<path d="M0 97L13.865 2.19603C14.2275 -0.285021 17.2325 -0.822814 18.2825 1.40598L45 58.1902L0 97Z" fill="#8BDCD6"/>
<path d="M0 97L0.507642 96.5678L45 57.0873L32.4511 31L0 97Z" fill="#47DBD0"/>
<path d="M0 97.045L67.4983 25.7448C68.9133 24.2501 71.2749 25.1319 71.5635 27.2615L81 97.045L43.0312 121.289C41.4897 122.237 39.609 122.237 38.0675 121.289L0 97.045Z" fill="#94FFF7"/>
</svg>
