<svg width="88" height="88" viewBox="0 0 88 88" fill="none" xmlns="http://www.w3.org/2000/svg">
<path d="M21.12 41.1895V41.1667V18.2849L20.9088 18.1283H20.8912L16.0864 14.5731C13.1472 12.3907 8.9584 12.4963 6.3536 15.0659C4.6112 16.7907 3.52 19.1843 3.52 21.8419V28.1814L21.12 41.1895ZM66.88 41.1667V41.1895L84.48 28.1814V21.8419C84.48 19.2195 83.424 16.8259 81.6992 15.1011C79.1296 12.5367 75.0728 12.2358 72.153 14.3918L67.0912 18.1283L66.88 18.2849V41.1667ZM24.64 43.7679L42.9546 57.3059C43.5758 57.7652 44.4259 57.7652 45.0472 57.3059L63.36 43.7679V20.8862L44 35.2003L24.64 20.8862V43.7679ZM66.88 45.5649V72.1603C66.88 73.1318 67.6685 73.9203 68.64 73.9203H80.08C82.5106 73.9203 84.48 71.9508 84.48 69.5203V32.555L66.88 45.5649ZM21.12 45.5649L3.52 32.555V69.5203C3.52 71.9508 5.48944 73.9203 7.92 73.9203H19.36C20.3315 73.9203 21.12 73.1318 21.12 72.1603V45.5649Z" fill="#66FCF1"/>
</svg>
