<svg width="121" height="134" viewBox="0 0 121 134" fill="none" xmlns="http://www.w3.org/2000/svg">
<path d="M113.902 0H7.09825C2.86618 0 -0.425432 3.62584 0.0447983 7.76198L12.2708 116.195C12.5911 119.015 14.6083 121.365 17.3752 122.144L58.5509 133.733C59.8253 134.089 61.1747 134.089 62.4491 133.733L103.625 122.144C106.392 121.365 108.409 119.015 108.729 116.195L120.955 7.76198C121.425 3.62584 118.134 0 113.902 0ZM87.4053 40.2871H41.5545L42.9243 55.7977L84.3386 55.6634C84.3454 55.6634 84.3522 55.6634 84.359 55.6634C86.2604 55.6634 88.0732 56.449 89.3612 57.8255C90.656 59.2086 91.3035 61.0619 91.1467 62.9352L88.5366 93.8824C88.3049 96.6757 86.3354 99.0325 83.589 99.7912L62.3468 105.68C61.7471 105.841 61.1202 105.928 60.5 105.928C59.8594 105.928 59.2188 105.841 58.6123 105.666L37.5473 99.6636C34.8622 98.8982 32.9268 96.6085 32.6542 93.8757L32.1158 88.5175C31.741 84.8245 34.4806 81.5411 38.222 81.1718C41.9089 80.8697 45.3095 83.5085 45.6775 87.188L45.7661 88.0207L60.5273 92.2239L75.3429 88.1214L76.9444 69.1058L36.6955 69.2334C36.6886 69.2334 36.6818 69.2334 36.675 69.2334C33.1381 69.2334 30.194 66.5745 29.8874 63.1031L27.3318 34.1568C27.1614 32.2834 27.802 30.4235 29.0968 29.0336C30.3917 27.6437 32.2112 26.8581 34.1194 26.8581H87.4053C91.174 26.8581 94.2202 29.8662 94.2202 33.5726C94.2202 37.279 91.174 40.2871 87.4053 40.2871Z" fill="#66FCF1"/>
</svg>
