<svg width="38" height="37" viewBox="0 0 38 37" fill="none" xmlns="http://www.w3.org/2000/svg">
<path d="M30.3333 4H8.16667C6.41708 4 5 5.37979 5 7.08333V28.6667C5 30.3702 6.41708 31.75 8.16667 31.75H30.3333C32.0829 31.75 33.5 30.3702 33.5 28.6667V7.08333C33.5 5.37979 32.0829 4 30.3333 4ZM12.5018 25.5833C11.3983 25.5833 10.5037 24.7123 10.5037 23.6377V16.7357C10.5052 15.6627 11.3998 14.7917 12.5018 14.7917C13.6054 14.7917 14.5 15.6627 14.5 16.7372V23.6393C14.5 24.7123 13.6054 25.5833 12.5018 25.5833ZM12.4322 12.8137C11.2114 12.8137 10.396 12.0213 10.396 10.9637C10.396 9.90613 11.2098 9.11371 12.5668 9.11371C13.7875 9.11371 14.6029 9.90613 14.6029 10.9637C14.6029 12.0213 13.7891 12.8137 12.4322 12.8137ZM26.8167 25.5833C25.7496 25.5833 24.8835 24.74 24.8835 23.701V19.6849C24.8835 18.0538 23.8528 17.875 23.4664 17.875C23.0801 17.875 21.7913 17.929 21.7913 19.6849V23.701C21.7913 24.74 20.9252 25.5833 19.858 25.5833H19.7298C18.6626 25.5833 17.7965 24.74 17.7965 23.701V16.7372C17.7965 15.6627 18.6911 14.7917 19.7947 14.7917C20.8983 14.7917 21.7928 15.6627 21.7928 16.7372C21.7928 16.7372 22.2393 14.7917 25.273 14.7917C27.2031 14.7917 28.75 16.2979 28.75 19.6849V23.701C28.75 24.74 27.8839 25.5833 26.8167 25.5833Z" fill="#66FCF1"/>
</svg>
