<svg width="121" height="134" viewBox="0 0 121 134" fill="none" xmlns="http://www.w3.org/2000/svg">
<path d="M60.4726 134C58.658 134 56.8164 133.522 55.2188 132.617L38.5095 122.912C36.0182 121.53 37.2367 121.051 38.0493 120.785C41.38 119.642 42.057 119.403 45.6045 117.408C45.984 117.196 46.4715 117.275 46.8503 117.515L59.6869 124.986C60.1474 125.252 60.7968 125.252 61.2303 124.986L111.25 96.6409C111.711 96.375 112.008 95.8433 112.008 95.3117V38.6219C112.008 38.0635 111.711 37.5583 111.223 37.2661L61.2306 8.94745C60.7704 8.68149 60.1477 8.68149 59.6872 8.94745L9.72194 37.2924C9.23418 37.5583 8.9366 38.09 8.9366 38.6484V95.3117C8.9366 95.8433 9.23418 96.375 9.72194 96.6147L23.4255 104.379C30.873 108.021 35.4224 103.741 35.4224 99.4069V43.4611C35.4224 42.6635 36.0722 42.052 36.8851 42.052H43.2221C44.0074 42.052 44.6842 42.6635 44.6842 43.4611V99.4334C44.6842 109.165 39.2678 114.749 29.8711 114.749C26.973 114.749 24.6983 114.749 18.3613 111.665L5.25379 104.246C2.00384 102.411 0 98.981 0 95.2855V38.6219C0 34.9526 2.00384 31.496 5.25379 29.6613L55.2188 1.31612C58.3871 -0.438706 62.585 -0.438706 65.7263 1.31612L115.746 29.6875C118.996 31.5222 121 34.9523 121 38.6484V95.3117C121 98.981 118.996 102.411 115.746 104.273L65.7263 132.617C64.1284 133.522 62.3135 134 60.4726 134ZM100.851 78.1349C100.851 67.5252 93.5392 64.7068 78.1843 62.7129C62.639 60.6918 61.0686 59.6547 61.0686 56.0918C61.0686 53.1406 62.3957 49.205 73.9052 49.205C84.1695 49.205 87.9609 51.3854 89.5313 58.1927C89.6669 58.8306 90.2632 59.3092 90.9394 59.3092H97.4398C97.8454 59.3092 98.2246 59.1499 98.4958 58.8571C98.7669 58.565 98.9019 58.1659 98.874 57.7668C97.8727 46.0411 89.9374 40.5899 73.9052 40.5899C59.6335 40.5899 51.1301 46.493 51.1301 56.411C51.1301 67.1532 59.6062 70.1318 73.2821 71.4605C89.6669 73.0297 90.9394 75.3963 90.9394 78.5605C90.9394 84.0385 86.4445 86.3776 75.9096 86.3776C62.6669 86.3776 59.7688 83.1072 58.7939 76.6463C58.6856 75.955 58.0895 75.4499 57.3588 75.4499H50.8859C50.0736 75.4499 49.4511 76.0882 49.4511 76.8587C49.4511 85.1288 54.0279 94.9936 75.9369 94.9936C91.752 94.9668 100.851 88.8235 100.851 78.1349Z" fill="#66FCF1"/>
</svg>
