<svg width="97" height="96" viewBox="0 0 97 96" fill="none" xmlns="http://www.w3.org/2000/svg">
<path d="M31.0387 0C28.5693 0 26.2789 0.606885 24.25 1.88915C17.9091 5.90805 15.4956 15.7018 16.7745 27.8953C6.518 32.7762 0 39.9633 0 48C0 56.0367 6.518 63.2238 16.7745 68.1047C15.4963 80.2977 17.9091 90.0919 24.25 94.1109C26.2749 95.3931 28.5652 96 31.0387 96C36.3035 96 42.3884 93.0993 48.5 88.1228C54.6121 93.0993 60.7044 96 65.9692 96C68.4386 96 70.729 95.3931 72.7579 94.1109C79.0987 90.092 81.5122 80.2981 80.2334 68.1047C90.486 63.2238 97 56.035 97 48C97 39.9633 90.482 32.7762 80.2255 27.8953C81.5037 15.7023 79.0908 5.90805 72.75 1.88915C70.7251 0.602448 68.4348 0 65.9613 0C60.6965 0 54.6116 2.90071 48.5 7.87723C42.388 2.90071 36.3017 0 31.0387 0ZM31.0387 7.76458C34.1978 7.76458 38.3755 9.60859 42.9111 13.0247C40.2444 15.7875 37.6326 18.9291 35.1199 22.4272C31.0444 23.0687 27.2018 24.0039 23.6422 25.1742C23.6231 24.9032 23.5778 24.6189 23.5632 24.351C23.1308 16.4533 24.7107 10.5661 27.7865 8.61383C28.6958 8.03703 29.7575 7.76458 31.0387 7.76458ZM65.9613 7.76458C67.2384 7.76458 68.3042 8.03703 69.2135 8.61383C72.2892 10.5616 73.8692 16.4533 73.4368 24.351C73.4221 24.6189 73.377 24.9032 73.3578 25.1742C69.7959 24.0031 65.9506 23.0687 61.8722 22.4272C59.3596 18.9296 56.7556 15.7872 54.0889 13.0247C58.6242 9.60916 62.8038 7.76458 65.9613 7.76458ZM48.5 17.9556C49.5956 19.0503 50.6836 20.2074 51.7839 21.4739C50.6935 21.4337 49.6089 21.3786 48.5 21.3786C47.3937 21.3786 46.3118 21.4339 45.224 21.4739C46.3233 20.2087 47.4054 19.0493 48.5 17.9556ZM48.5 29.1432C51.8493 29.1432 55.0238 29.3487 58.0358 29.7064C59.8727 32.4473 61.683 35.3451 63.38 38.5716C65.0065 41.6642 66.4447 44.8298 67.7137 48C66.4446 51.1721 65.0074 54.3426 63.38 57.4371C61.6883 60.6542 59.8825 63.5334 58.0516 66.2676C54.9332 66.6421 51.7342 66.8568 48.5 66.8568C45.1507 66.8568 41.9762 66.6513 38.9642 66.2936C37.1273 63.5527 35.317 60.6636 33.62 57.4371C31.9926 54.3426 30.5558 51.1721 29.2863 48C30.5549 44.8298 31.9935 41.6642 33.62 38.5716C35.3124 35.3544 37.1171 32.4666 38.9484 29.7324C42.0668 29.3579 45.2658 29.1432 48.5 29.1432ZM67.6821 31.5436C69.2856 31.9686 70.8272 32.4274 72.2764 32.9388C71.9481 34.5674 71.5465 36.2272 71.0923 37.9043C70.5722 36.8329 70.0678 35.7582 69.5056 34.6893C68.9271 33.5898 68.2849 32.602 67.6821 31.5436ZM29.31 31.5523C28.7092 32.6074 28.071 33.5933 27.4944 34.6893C26.9323 35.7583 26.4276 36.8328 25.9077 37.9043C25.4524 36.2237 25.0444 34.5619 24.7157 32.9301C26.1915 32.4183 27.7292 31.965 29.31 31.5523ZM18.0612 35.7812C18.9128 39.7283 20.0941 43.8201 21.6134 47.9913C20.0973 52.1527 18.921 56.2369 18.0691 60.1755C11.0306 56.4443 7.07292 51.7996 7.07292 48C7.07292 44.1 10.9201 39.6554 17.3665 36.1192C17.5866 35.9983 17.8364 35.8992 18.0612 35.7812ZM78.9309 35.8245C85.9693 39.5557 89.9271 44.2004 89.9271 48C89.9271 51.9 86.0799 56.3446 79.6335 59.8808C79.4134 60.0017 79.1636 60.1008 78.9388 60.2188C78.0867 56.2693 76.9151 52.1738 75.3944 48C76.9088 43.8422 78.0798 39.7598 78.9309 35.8245ZM48.5 39.1262C44.034 39.1262 40.4167 43.0972 40.4167 48C40.4167 52.9028 44.034 56.8738 48.5 56.8738C52.966 56.8738 56.5833 52.9028 56.5833 48C56.5833 43.0972 52.966 39.1262 48.5 39.1262ZM25.9077 58.0957C26.428 59.1674 26.9398 60.2414 27.5023 61.3107C28.0801 62.4094 28.7157 63.3988 29.3179 64.4564C27.7144 64.0314 26.1728 63.5726 24.7236 63.0612C25.0522 61.4316 25.4531 59.7739 25.9077 58.0957ZM71.0923 58.1044C71.5471 59.7833 71.9559 61.4396 72.2843 63.0699C70.8085 63.5817 69.2708 64.035 67.69 64.4477C68.2908 63.3926 68.929 62.4067 69.5056 61.3107C70.0665 60.2439 70.5733 59.1736 71.0923 58.1044ZM23.6422 70.8258C27.2041 71.9969 31.0494 72.9313 35.1278 73.5728C37.6412 77.0721 40.2432 80.2205 42.9111 82.9839C38.3758 86.3991 34.1976 88.2441 31.0387 88.2441C29.7616 88.2441 28.6958 87.963 27.7865 87.3862C24.7107 85.4384 23.1308 79.5554 23.5632 71.6577C23.578 71.387 23.6227 71.0996 23.6422 70.8258ZM73.3578 70.8258C73.3772 71.0996 73.4221 71.387 73.4368 71.6577C73.8692 79.5554 72.2892 85.4339 69.2135 87.3862C68.3042 87.963 67.2425 88.2441 65.9613 88.2441C62.8024 88.2441 58.6242 86.3997 54.0889 82.9839C56.757 80.2202 59.3662 77.0726 61.8801 73.5728C65.9556 72.9313 69.7982 71.9961 73.3578 70.8258ZM45.2161 74.5261C46.3065 74.5663 47.3911 74.6214 48.5 74.6214C49.6089 74.6214 50.6935 74.5663 51.7839 74.5261C50.6836 75.7926 49.5956 76.9497 48.5 78.0444C47.4044 76.9497 46.3164 75.7926 45.2161 74.5261Z" fill="#66FCF1"/>
</svg>
